<svg width="25" height="25" viewBox="0 0 25 25" fill="none" xmlns="http://www.w3.org/2000/svg">
<path d="M12.5 24.6394C5.8093 24.6394 0.36058 19.1907 0.36058 12.5C0.36058 5.80925 5.8093 0.360535 12.5 0.360535C19.1907 0.360535 24.6394 5.80925 24.6394 12.5C24.6394 19.1907 19.1907 24.6394 12.5 24.6394ZM12.5 1.92303C6.69071 1.92303 1.92308 6.69066 1.92308 12.5C1.92308 18.3093 6.65064 23.0368 12.4599 23.0368C18.2692 23.0368 22.9968 18.3093 22.9968 12.5C23.0369 6.69066 18.3093 1.92303 12.5 1.92303Z" fill="#E8302E"/>
<path d="M15.3445 14.1026C15.3445 14.1026 14.3429 14.0625 9.85576 14.0625H9.65544" fill="#E8302E"/>
<path d="M15.3445 14.9039C15.3045 14.9039 15.3045 14.9039 15.3445 14.9039C15.3045 14.9039 14.2628 14.8638 9.85576 14.8638H9.65544C9.21473 14.8638 8.85416 14.5032 8.85416 14.0625C8.85416 13.6218 9.21473 13.2612 9.65544 13.2612H9.85576C14.3429 13.2612 15.3445 13.3013 15.3846 13.3013C15.8253 13.3414 16.1859 13.7019 16.1458 14.1426C16.1058 14.5833 15.7452 14.9039 15.3445 14.9039Z" fill="#E8302E"/>
<path d="M8.29327 11.5385C9.0677 11.5385 9.69551 10.9107 9.69551 10.1363C9.69551 9.36181 9.0677 8.73401 8.29327 8.73401C7.51883 8.73401 6.89102 9.36181 6.89102 10.1363C6.89102 10.9107 7.51883 11.5385 8.29327 11.5385Z" fill="#E8302E"/>
<path d="M16.5865 11.5385C17.361 11.5385 17.9888 10.9107 17.9888 10.1363C17.9888 9.36181 17.361 8.73401 16.5865 8.73401C15.8121 8.73401 15.1843 9.36181 15.1843 10.1363C15.1843 10.9107 15.8121 11.5385 16.5865 11.5385Z" fill="#E8302E"/>
<path d="M10.5769 8.93428C10.3766 8.93428 10.1763 8.85416 10.016 8.6939L7.97276 6.65063C7.65225 6.33012 7.65225 5.84935 7.97276 5.52884C8.29327 5.20832 8.77404 5.20832 9.09456 5.52884L11.1378 7.5721C11.4583 7.89262 11.4583 8.37339 11.1378 8.6939C10.9776 8.85416 10.7772 8.93428 10.5769 8.93428Z" fill="#E8302E"/>
<path d="M14.4231 8.93428C14.2228 8.93428 14.0224 8.85416 13.8622 8.6939C13.5417 8.37339 13.5417 7.89262 13.8622 7.5721L15.9054 5.52884C16.226 5.20832 16.7067 5.20832 17.0272 5.52884C17.3478 5.84935 17.3478 6.33012 17.0272 6.65063L14.984 8.6939C14.8237 8.85416 14.6234 8.93428 14.4231 8.93428Z" fill="#E8302E"/>
</svg>
