<svg width="16" height="17" viewBox="0 0 16 17" fill="none" xmlns="http://www.w3.org/2000/svg">
<path d="M13.4718 0.000305176H2.52823C1.12945 0.00264239 -0.00196663 1.35238 0.000982314 3.01414V3.01531V10.1672C-0.00196663 11.8289 1.12945 13.1787 2.52725 13.1822H2.52823H6.29698L7.58469 15.6713C7.59649 15.6958 7.61025 15.7204 7.62598 15.7426C7.74492 15.988 8.00835 16.0721 8.2138 15.9307C8.27966 15.8852 8.33372 15.8209 8.37206 15.7426C8.38877 15.7192 8.40351 15.6947 8.41629 15.6678L9.70302 13.1787H13.4728C14.8706 13.1752 16.002 11.8254 16 10.1637V3.01531C16.001 1.35355 14.8696 0.00381099 13.4718 0.000305176ZM3.5525 8.82561C3.2232 8.84197 2.91159 8.65149 2.73072 8.32428V8.70407H1.74184V3.8532H2.72483V5.69842C2.946 5.43081 3.24187 5.26838 3.55643 5.2415C4.8864 5.2415 4.9326 7.01427 4.9326 7.01427C4.93359 8.76367 3.5525 8.82561 3.5525 8.82561ZM6.63906 5.56637V8.70407H5.69442V5.83281C5.69442 4.84184 5.24814 4.86638 5.24814 4.86638V3.74335C6.68428 3.74335 6.63906 5.56637 6.63906 5.56637ZM10.6034 7.05283C10.6034 8.8221 8.94514 8.82561 8.94514 8.82561C7.27407 8.82561 7.32715 7.05283 7.32715 7.05283C7.32911 5.25552 8.94514 5.25552 8.94514 5.25552C10.6565 5.25552 10.6034 7.05283 10.6034 7.05283ZM14.2532 8.65967C14.2532 10.4967 12.822 10.478 12.822 10.478H12.4416V9.44614H12.6805C13.3735 9.44614 13.3047 8.59539 13.3047 8.59539V8.32428C12.9999 8.79172 12.4446 8.76718 12.4446 8.76718C11.0812 8.76718 11.0969 7.04115 11.0969 7.04115C11.0969 5.1854 12.4829 5.25552 12.4829 5.25552C12.7984 5.25202 13.0992 5.41445 13.3047 5.69842V5.37355H14.2532V8.65967Z" fill="black"/>
<path d="M12.7208 6.30493C12.3738 6.30377 12.0917 6.63918 12.0907 7.05172C12.0897 7.46426 12.3718 7.79968 12.7188 7.80084C13.0658 7.80201 13.348 7.4666 13.349 7.05406V7.05289C13.348 6.64035 13.0678 6.3061 12.7208 6.30493Z" fill="black"/>
<path d="M3.34219 6.30493C2.99517 6.3061 2.71304 6.64151 2.71402 7.05405C2.71501 7.4666 2.99714 7.80201 3.34415 7.80084C3.69117 7.79967 3.97232 7.46543 3.97232 7.05288C3.97232 6.63917 3.69018 6.30493 3.34219 6.30493Z" fill="black"/>
<path d="M8.94518 6.30493C8.59817 6.3061 8.31604 6.64151 8.31702 7.05405C8.318 7.4666 8.60014 7.80201 8.94715 7.80084C9.29417 7.79967 9.57532 7.46543 9.57532 7.05288C9.57532 6.63917 9.29318 6.30493 8.94518 6.30493Z" fill="black"/>
</svg>
