<svg width="15" height="19" viewBox="0 0 15 19" fill="none" xmlns="http://www.w3.org/2000/svg">
<path d="M4.95536 10.6875H3.61607C3.39509 10.6875 3.21429 10.4871 3.21429 10.2422V8.75781C3.21429 8.51289 3.39509 8.3125 3.61607 8.3125H4.95536C5.17634 8.3125 5.35714 8.51289 5.35714 8.75781V10.2422C5.35714 10.4871 5.17634 10.6875 4.95536 10.6875ZM8.57143 10.2422V8.75781C8.57143 8.51289 8.39062 8.3125 8.16964 8.3125H6.83036C6.60937 8.3125 6.42857 8.51289 6.42857 8.75781V10.2422C6.42857 10.4871 6.60937 10.6875 6.83036 10.6875H8.16964C8.39062 10.6875 8.57143 10.4871 8.57143 10.2422ZM11.7857 10.2422V8.75781C11.7857 8.51289 11.6049 8.3125 11.3839 8.3125H10.0446C9.82366 8.3125 9.64286 8.51289 9.64286 8.75781V10.2422C9.64286 10.4871 9.82366 10.6875 10.0446 10.6875H11.3839C11.6049 10.6875 11.7857 10.4871 11.7857 10.2422ZM8.57143 13.8047V12.3203C8.57143 12.0754 8.39062 11.875 8.16964 11.875H6.83036C6.60937 11.875 6.42857 12.0754 6.42857 12.3203V13.8047C6.42857 14.0496 6.60937 14.25 6.83036 14.25H8.16964C8.39062 14.25 8.57143 14.0496 8.57143 13.8047ZM5.35714 13.8047V12.3203C5.35714 12.0754 5.17634 11.875 4.95536 11.875H3.61607C3.39509 11.875 3.21429 12.0754 3.21429 12.3203V13.8047C3.21429 14.0496 3.39509 14.25 3.61607 14.25H4.95536C5.17634 14.25 5.35714 14.0496 5.35714 13.8047ZM11.7857 13.8047V12.3203C11.7857 12.0754 11.6049 11.875 11.3839 11.875H10.0446C9.82366 11.875 9.64286 12.0754 9.64286 12.3203V13.8047C9.64286 14.0496 9.82366 14.25 10.0446 14.25H11.3839C11.6049 14.25 11.7857 14.0496 11.7857 13.8047ZM15 4.15625V17.2188C15 18.2021 14.2801 19 13.3929 19H1.60714C0.719866 19 0 18.2021 0 17.2188V4.15625C0 3.17285 0.719866 2.375 1.60714 2.375H3.21429V0.445312C3.21429 0.200391 3.39509 0 3.61607 0H4.95536C5.17634 0 5.35714 0.200391 5.35714 0.445312V2.375H9.64286V0.445312C9.64286 0.200391 9.82366 0 10.0446 0H11.3839C11.6049 0 11.7857 0.200391 11.7857 0.445312V2.375H13.3929C14.2801 2.375 15 3.17285 15 4.15625ZM13.3929 16.9961V5.9375H1.60714V16.9961C1.60714 17.1186 1.69754 17.2188 1.80804 17.2188H13.192C13.3025 17.2188 13.3929 17.1186 13.3929 16.9961Z" fill="#333333"/>
</svg>
