<svg width="40" height="35" viewBox="0 0 40 35" fill="none" xmlns="http://www.w3.org/2000/svg">
<path d="M40 8.75V31.25C40 33.3203 38.3203 35 36.25 35H3.75C1.67969 35 0 33.3203 0 31.25V8.75C0 6.67969 1.67969 5 3.75 5H10.625L11.5859 2.42969C12.1328 0.96875 13.5312 0 15.0938 0H24.8984C26.4609 0 27.8594 0.96875 28.4062 2.42969L29.375 5H36.25C38.3203 5 40 6.67969 40 8.75ZM29.375 20C29.375 14.8281 25.1719 10.625 20 10.625C14.8281 10.625 10.625 14.8281 10.625 20C10.625 25.1719 14.8281 29.375 20 29.375C25.1719 29.375 29.375 25.1719 29.375 20ZM26.875 20C26.875 23.7891 23.7891 26.875 20 26.875C16.2109 26.875 13.125 23.7891 13.125 20C13.125 16.2109 16.2109 13.125 20 13.125C23.7891 13.125 26.875 16.2109 26.875 20Z" fill="white"/>
</svg>
