<?xml version="1.0" encoding="UTF-8" standalone="no"?> <svg xmlns="http://www.w3.org/2000/svg" viewBox="0 0 64 64"><defs><style>.cls-1{fill:#70bdfb;stroke:#70bdfb;}.cls-1,.cls-5{stroke-linecap:round;}.cls-1,.cls-4,.cls-5{stroke-linejoin:round;stroke-width:2px;}.cls-2{fill:#fff;}.cls-3{opacity:0.05;}.cls-4{fill:#5b3b63;stroke:#5b3b63;}.cls-5{fill:none;stroke:#cfd8dc;}.cls-6{fill:#4f4f4f;}.cls-7{fill:#ff4931;}</style></defs><title>cloud-moon</title><g id="cloud-moon"><circle class="cls-1" cx="49" cy="20" r="14"/><circle class="cls-2" cx="54" cy="25" r="2"/><circle class="cls-2" cx="48" cy="13" r="2"/><circle class="cls-2" cx="43.5" cy="23.5" r="2.5"/><path class="cls-2" d="M49,35.29c0-.27,0-.53,0-.8A14.48,14.48,0,0,0,20.48,31,6.63,6.63,0,0,0,8.73,36.21,11.4,11.4,0,0,0,13.4,58H47.6A11.4,11.4,0,0,0,49,35.29Z"/><g class="cls-3"><path class="cls-4" d="M10.48,31c0-.2.11-.39.17-.59-.12.12-.24.25-.36.38Z"/><path class="cls-4" d="M49,35.29c0-.27,0-.53,0-.8A14.48,14.48,0,0,0,29.52,20.9,14.48,14.48,0,0,1,39,34.49c0,.27,0,.54,0,.8A11.4,11.4,0,0,1,37.6,58h10A11.4,11.4,0,0,0,49,35.29Z"/></g><path class="cls-5" d="M49,35.29c0-.27,0-.53,0-.8A14.48,14.48,0,0,0,20.48,31,6.63,6.63,0,0,0,8.73,36.21,11.4,11.4,0,0,0,13.4,58H47.6A11.4,11.4,0,0,0,49,35.29Z"/><circle class="cls-6" cx="36" cy="38" r="2"/><circle class="cls-6" cx="15" cy="38" r="2"/><path class="cls-6" d="M32,45.18c0-1.57-14-1.57-14,0v0C18,47.86,21.13,50,25,50s7-2.14,7-4.79Z"/><ellipse class="cls-7" cx="25" cy="47" rx="3" ry="1"/></g></svg>