<svg xmlns="http://www.w3.org/2000/svg" viewBox="0 0 50 50"><path d="M43.91 12.004L27.07 2.539a4.265 4.265 0 0 0-4.14 0L6.09 12.004A4.066 4.066 0 0 0 4 15.535v18.93c0 1.453.8 2.808 2.09 3.531l16.84 9.465c.64.36 1.355.539 2.07.539.715 0 1.43-.18 2.07-.54l16.84-9.464A4.066 4.066 0 0 0 46 34.465v-18.93c0-1.453-.8-2.808-2.09-3.531zM25 37c-6.617 0-12-5.383-12-12s5.383-12 12-12c3.781 0 7.273 1.754 9.543 4.742l-4.383 2.535A6.993 6.993 0 0 0 25 18c-3.86 0-7 3.14-7 7s3.14 7 7 7a6.993 6.993 0 0 0 5.16-2.277l4.383 2.535A11.931 11.931 0 0 1 25 37zm12-11h-2v2h-2v-2h-2v-2h2v-2h2v2h2zm7 0h-2v2h-2v-2h-2v-2h2v-2h2v2h2z"/></svg>