<svg width="100" height="100" viewBox="0 0 100 100" fill="none" xmlns="http://www.w3.org/2000/svg">
<rect width="100" height="100" rx="50" fill="white"/>
<path d="M33.3633 38.6777C33.4935 38.8568 33.4447 39.0277 33.2168 39.1904L15.126 51.8613L33.2168 64.5566C33.4447 64.7194 33.4935 64.8903 33.3633 65.0693L31.6543 67.5107C31.5078 67.7061 31.3288 67.7223 31.1172 67.5596L10.0723 52.8135C9.92578 52.7158 9.85254 52.4066 9.85254 51.8857C9.85254 51.3486 9.92578 51.0312 10.0723 50.9336L31.1172 36.1875C31.3288 36.0247 31.5078 36.041 31.6543 36.2363L33.3633 38.6777ZM61.0234 29.6689C61.235 29.7666 61.2757 29.9375 61.1455 30.1816L41.2236 69.293C41.0934 69.5208 40.9307 69.5859 40.7354 69.4883L38.0986 68.1455C37.887 68.0479 37.8464 67.877 37.9766 67.6328L57.8984 28.5215C58.0286 28.2936 58.1914 28.2285 58.3867 28.3262L61.0234 29.6689ZM65.832 65.0693C65.7018 64.8903 65.7507 64.7194 65.9785 64.5566L84.0693 51.8857L65.9785 39.1904C65.7507 39.0277 65.7018 38.8568 65.832 38.6777L67.541 36.2363C67.6875 36.041 67.8665 36.0247 68.0781 36.1875L89.123 50.9336C89.2695 51.0312 89.3428 51.3486 89.3428 51.8857C89.3428 52.4066 89.2695 52.7158 89.123 52.8135L68.0781 67.5596C67.8665 67.7223 67.6875 67.7061 67.541 67.5107L65.832 65.0693Z" fill="#212121"/>
</svg>
