<svg width="16" height="18" viewBox="0 0 16 18" fill="none" xmlns="http://www.w3.org/2000/svg">
<path d="M3.27334 2.68001V4.56668L2.24002 5.16668C2.04099 5.27013 1.87128 5.42211 1.74659 5.60856C1.6219 5.79501 1.54626 6.00991 1.52668 6.23335V15.12C1.52132 15.1651 1.52626 15.2108 1.54111 15.2537C1.55596 15.2965 1.58036 15.3355 1.61245 15.3676C1.64454 15.3997 1.68349 15.4241 1.72637 15.4389C1.76926 15.4538 1.81495 15.4587 1.86002 15.4533H13.9533C13.9974 15.4543 14.0411 15.4463 14.082 15.4298C14.1228 15.4134 14.1599 15.3889 14.1911 15.3577C14.2222 15.3266 14.2467 15.2895 14.2631 15.2487C14.2796 15.2078 14.2876 15.164 14.2867 15.12V6.23335C14.275 6.01451 14.2077 5.80228 14.091 5.61677C13.9743 5.43127 13.8122 5.27864 13.62 5.17335L12.5467 4.55335V2.68001C12.5467 2.59161 12.5115 2.50683 12.4491 2.44431C12.3865 2.3818 12.3017 2.34668 12.2133 2.34668H3.60668C3.51881 2.34839 3.43501 2.38405 3.37286 2.4462C3.31072 2.50835 3.27505 2.59215 3.27334 2.68001ZM2.54002 5.75335L3.27334 5.32668V7.52668L2.53335 7.00668C2.42662 6.9317 2.33985 6.83175 2.28059 6.71555C2.22133 6.59936 2.19138 6.47043 2.19335 6.34001C2.19302 6.22009 2.22505 6.10229 2.28606 5.99904C2.34707 5.89579 2.4348 5.81091 2.54002 5.75335ZM2.19335 7.56667L7.33334 11.1867L2.21335 14.52L2.19335 7.56667ZM2.98668 14.7667L7.90667 11.5667L12.8267 14.76L2.98668 14.7667ZM12.54 5.32668L13.28 5.75335C13.3832 5.81599 13.4687 5.90402 13.5282 6.00906C13.5877 6.11409 13.6193 6.23263 13.62 6.35335C13.6225 6.48387 13.5929 6.613 13.5335 6.72929C13.4743 6.84559 13.3871 6.94545 13.28 7.02001L12.54 7.54001V5.32668ZM13.62 7.56667V14.5067L8.50667 11.1733L13.62 7.56667ZM3.94001 3.01335H11.8733V8.00001L7.90667 10.7933L3.94001 8.00001V3.01335Z" fill="black"/>
<path d="M8.4 9.17999H7.6C7.51213 9.18173 7.42833 9.21739 7.3662 9.27953C7.30406 9.34166 7.2684 9.42546 7.26666 9.51333C7.26666 9.60173 7.3018 9.68653 7.36433 9.74906C7.4268 9.81153 7.5116 9.84666 7.6 9.84666H8.4C8.4884 9.84666 8.5732 9.81153 8.63573 9.74906C8.6982 9.68653 8.73333 9.60173 8.73333 9.51333C8.73166 9.42546 8.696 9.34166 8.6338 9.27953C8.57166 9.21739 8.48786 9.18173 8.4 9.17999Z" fill="black"/>
<path d="M9.17333 4.04004C8.882 3.885 8.5624 3.79033 8.23366 3.7617C7.90493 3.73306 7.57373 3.77104 7.26 3.87337C6.70266 4.05174 6.22608 4.42094 5.91412 4.91603C5.60214 5.41112 5.47477 6.00037 5.5544 6.58011C5.63404 7.15985 5.91558 7.69296 6.34949 8.08556C6.7834 8.47822 7.34186 8.70522 7.92666 8.72669C8.0134 8.72509 8.09626 8.69036 8.15826 8.62962C8.2202 8.56889 8.2566 8.48676 8.26 8.40002C8.2618 8.31276 8.22933 8.22822 8.16946 8.16462C8.10966 8.10109 8.02726 8.06349 7.94 8.06002C7.66646 8.05216 7.39826 7.98269 7.15533 7.85682C6.91233 7.73102 6.70086 7.55198 6.53667 7.33311C6.37245 7.11424 6.25969 6.86117 6.20678 6.5927C6.15387 6.32424 6.16218 6.04731 6.23108 5.7825C6.29998 5.51769 6.4277 5.27183 6.60475 5.0632C6.7818 4.85457 7.0036 4.68854 7.25366 4.57748C7.50373 4.46641 7.77566 4.41316 8.04913 4.42168C8.3226 4.4302 8.59066 4.50028 8.83333 4.6267C9.21953 4.80656 9.51926 5.1313 9.6678 5.53058C9.81626 5.92986 9.80146 6.37156 9.62666 6.76004C9.5946 6.85238 9.53553 6.93292 9.457 6.99119C9.37853 7.04946 9.28433 7.08274 9.18666 7.0867C9.1722 7.08619 9.158 7.08231 9.14526 7.07537C9.13253 7.06842 9.1216 7.05861 9.11333 7.0467C9.0724 7.00596 9.04853 6.95111 9.04666 6.89337C9.04666 6.76004 9.04666 4.93337 9.04666 5.00004C9.04666 4.91164 9.01153 4.82685 8.94906 4.76434C8.88653 4.70182 8.80173 4.6667 8.71333 4.6667C8.6336 4.66752 8.5568 4.69688 8.49686 4.74948C8.43693 4.80208 8.3978 4.87442 8.38666 4.95337C8.23006 4.86502 8.05313 4.81907 7.87333 4.82004C7.52786 4.85228 7.20853 5.01795 6.9832 5.28185C6.75793 5.54575 6.64435 5.88709 6.66666 6.23337C6.63896 6.58402 6.75093 6.93142 6.9782 7.19988C7.20546 7.46835 7.5296 7.63616 7.88 7.66669C8.1252 7.65776 8.3602 7.56615 8.54666 7.4067C8.5692 7.45496 8.5984 7.49984 8.63333 7.54004C8.70433 7.61336 8.78926 7.67176 8.88313 7.71182C8.977 7.75189 9.07793 7.77282 9.18 7.77336C9.4122 7.76989 9.63786 7.69602 9.82713 7.5615C10.0164 7.42698 10.1604 7.23817 10.24 7.02004C10.4843 6.4821 10.5096 5.87017 10.3105 5.31392C10.1113 4.75766 9.70353 4.30077 9.17333 4.04004ZM7.89333 6.9867C7.62666 6.9867 7.34666 6.68004 7.34666 6.22004C7.3294 6.04926 7.37866 5.8784 7.48426 5.74304C7.5898 5.60768 7.74353 5.51825 7.91333 5.49337C8.20666 5.49337 8.40666 5.7867 8.41333 6.20004V6.23337C8.40666 6.64004 8.18 6.9867 7.89333 6.9867Z" fill="black"/>
</svg>
