<?xml version="1.0" standalone="no"?>
<!DOCTYPE svg PUBLIC "-//W3C//DTD SVG 20010904//EN"
 "http://www.w3.org/TR/2001/REC-SVG-20010904/DTD/svg10.dtd">
<svg version="1.0" xmlns="http://www.w3.org/2000/svg"
 width="1028.000000pt" height="1028.000000pt" viewBox="0 0 1028.000000 1028.000000"
 preserveAspectRatio="xMidYMid meet">

<g transform="translate(0.000000,1028.000000) scale(0.100000,-0.100000)"
fill="#000000" stroke="none">
<path d="M4345 10264 c-275 -22 -498 -90 -648 -198 -105 -75 -231 -216 -290
-326 -59 -109 -69 -152 -76 -309 l-6 -144 -40 -2 c-175 -9 -547 -290 -790
-595 -201 -252 -277 -398 -370 -710 -82 -275 -110 -519 -102 -885 4 -143 13
-314 22 -380 8 -66 24 -208 35 -315 54 -513 128 -906 231 -1228 21 -65 26 -96
19 -105 -5 -6 -45 -82 -88 -167 -70 -139 -130 -241 -276 -465 -63 -98 -215
-272 -432 -495 -101 -105 -184 -197 -184 -205 0 -37 70 -44 220 -20 192 31
348 83 640 212 80 35 151 67 159 70 12 5 13 -4 8 -48 -15 -140 -109 -372 -199
-490 -72 -95 -312 -348 -428 -453 -61 -54 -110 -104 -110 -110 0 -20 23 -36
53 -36 16 0 90 13 165 30 155 33 314 64 417 80 39 6 80 18 93 26 12 8 22 12
22 8 0 -17 -334 -362 -417 -430 -98 -81 -313 -306 -339 -357 -9 -16 -14 -38
-12 -50 3 -21 7 -22 83 -17 44 3 181 5 305 4 217 0 232 -2 424 -38 222 -42
429 -97 415 -110 -2 -2 -65 -9 -139 -16 -275 -24 -678 -100 -1086 -205 -231
-59 -361 -103 -472 -159 -61 -31 -72 -40 -72 -62 0 -33 143 -309 269 -519 56
-92 101 -173 101 -180 0 -6 -11 -18 -25 -25 -48 -26 -141 -147 -270 -353 -216
-344 -245 -390 -270 -439 l-25 -48 640 0 641 0 -30 43 c-50 72 -397 528 -458
601 -72 87 -113 147 -113 165 0 8 -7 22 -15 31 -9 10 -49 73 -89 141 -40 68
-91 153 -113 189 -48 78 -208 389 -202 393 14 10 140 67 148 67 6 0 15 -19 21
-42 34 -134 218 -531 332 -718 227 -371 220 -361 406 -578 67 -79 146 -177
174 -218 47 -67 55 -74 85 -74 l33 0 -33 44 c-17 24 -53 72 -78 107 -26 35
-102 127 -169 204 -68 77 -151 183 -185 235 -152 234 -241 380 -300 493 -91
176 -245 502 -251 536 -5 24 -2 30 23 39 15 5 35 13 44 17 13 5 25 -16 63
-112 52 -129 116 -245 252 -455 49 -75 117 -183 152 -240 102 -166 227 -335
403 -544 90 -107 186 -224 213 -259 45 -60 51 -65 87 -65 38 0 38 0 24 26 -7
14 -26 38 -43 53 -16 14 -72 76 -124 136 -269 313 -425 520 -559 742 -39 65
-104 165 -144 223 -89 131 -148 228 -230 382 -62 117 -63 119 -41 127 57 22
361 91 375 85 9 -3 70 -16 136 -29 97 -18 148 -35 267 -88 81 -37 232 -96 335
-133 223 -79 462 -173 543 -214 159 -81 704 -424 855 -539 93 -71 312 -269
395 -357 78 -84 182 -217 266 -341 l48 -73 548 0 547 0 16 23 c9 12 53 74 98
137 96 136 300 396 441 564 133 159 251 284 364 385 51 46 100 93 108 106 45
69 409 364 560 454 39 22 186 95 327 161 251 117 430 185 610 230 l88 22 117
-65 c146 -81 271 -143 387 -192 78 -33 178 -85 292 -151 l32 -19 -45 -25
c-124 -71 -408 -299 -598 -480 -179 -171 -356 -398 -484 -621 -60 -104 -195
-425 -208 -494 -5 -31 -4 -35 14 -35 16 0 25 14 43 68 165 503 428 870 915
1273 89 74 210 173 271 220 l110 86 39 -20 c21 -11 41 -21 43 -23 6 -5 -55
-53 -148 -118 -153 -105 -487 -392 -627 -538 -100 -104 -230 -266 -302 -376
-63 -97 -165 -306 -216 -445 -41 -112 -43 -127 -17 -127 15 0 24 13 37 53 53
164 162 391 246 517 112 166 296 376 439 499 287 249 354 305 439 368 52 39
110 86 129 106 22 23 39 33 50 29 22 -8 71 -44 71 -53 0 -4 -44 -46 -97 -95
-253 -227 -537 -503 -626 -606 -88 -104 -164 -198 -307 -388 -50 -66 -192
-332 -204 -382 -3 -16 -7 -30 -9 -33 -2 -5 1067 -6 1298 -2 l80 2 -1 105 c-2
129 -28 224 -112 409 -96 208 -168 316 -349 520 l-48 54 115 109 c63 60 157
146 208 190 87 76 129 128 118 147 -9 13 -225 154 -321 209 -49 28 -242 123
-429 212 -186 88 -353 168 -370 177 l-31 16 30 9 c17 4 107 11 200 14 94 4
176 11 183 17 65 52 -133 269 -539 589 l-136 108 -76 157 c-85 177 -130 287
-158 383 -19 66 -25 165 -11 174 5 3 96 -47 203 -111 241 -143 261 -153 388
-197 126 -44 201 -55 220 -33 16 20 9 33 -78 152 -190 258 -296 431 -411 668
-85 175 -156 374 -184 513 l-17 82 84 128 c329 506 424 751 458 1184 24 309
-24 620 -154 980 -46 128 -293 647 -344 720 -42 62 137 -125 204 -213 149
-196 351 -403 683 -702 199 -179 286 -247 309 -243 24 5 25 42 3 90 -11 24
-67 147 -124 273 -413 911 -562 1205 -722 1425 -109 150 -559 621 -729 762
-434 363 -877 638 -1367 848 -254 109 -520 186 -841 245 -351 65 -462 77 -729
80 -135 1 -267 1 -295 -1z m565 -54 c191 -20 583 -87 755 -131 280 -72 692
-238 976 -395 556 -307 999 -665 1468 -1187 223 -249 353 -472 639 -1092 95
-209 242 -533 298 -661 23 -55 -390 364 -554 562 -220 264 -331 363 -489 436
-42 19 -93 55 -133 92 -88 83 -155 136 -169 136 -27 0 -6 -33 59 -91 39 -34
70 -66 70 -70 0 -5 36 -66 81 -136 88 -140 171 -305 274 -543 118 -274 172
-461 210 -730 37 -260 3 -631 -80 -880 -66 -198 -291 -594 -482 -847 -57 -77
-78 -92 -63 -45 14 44 38 186 56 342 15 128 15 172 5 375 -25 472 -48 627
-125 818 -63 156 -128 288 -203 412 -30 49 -71 120 -90 158 -22 45 -38 66 -44
60 -7 -7 12 -85 54 -224 36 -118 72 -248 80 -289 94 -452 84 -889 -26 -1250
l-23 -75 4 122 c5 126 -6 212 -38 323 -10 36 -37 151 -60 255 -48 217 -91 373
-127 459 -26 61 -149 296 -211 401 -45 75 -260 383 -315 450 -108 132 -223
261 -332 375 -67 69 -151 166 -188 216 -80 110 -94 123 -103 100 -4 -11 36
-80 118 -204 141 -211 201 -309 247 -400 47 -94 29 -74 -24 26 -74 140 -90
148 -26 12 58 -121 79 -181 210 -580 102 -311 257 -961 236 -988 -1 -1 -24 51
-50 115 -62 152 -176 391 -248 519 -31 55 -67 134 -81 175 -36 110 -86 235
-165 413 -251 568 -643 1111 -1001 1387 -98 76 -371 254 -477 312 -40 21 -189
92 -330 158 -267 123 -357 173 -480 266 -170 128 -255 226 -392 456 -29 49
-76 116 -103 150 -27 34 -56 75 -65 90 -8 16 -17 26 -20 23 -3 -3 -14 -1 -24
5 -18 9 -17 12 7 67 71 162 249 352 397 425 101 50 140 65 226 87 137 34 213
43 446 49 248 7 266 7 425 -9z m-1571 -1005 c7 -27 29 -111 51 -185 21 -74 46
-167 55 -206 9 -41 49 -139 95 -234 68 -141 89 -175 155 -249 42 -47 105 -111
141 -141 l64 -55 -4 -160 c-4 -173 -27 -329 -71 -479 -77 -265 -210 -540 -370
-762 l-54 -76 0 229 c0 280 -11 377 -61 563 -22 80 -56 210 -75 290 -20 79
-37 145 -39 147 -1 2 -16 6 -33 9 l-31 6 -7 -66 c-7 -62 -3 -200 11 -431 5
-77 3 -108 -9 -135 -15 -36 -144 -200 -157 -200 -16 0 -138 -234 -198 -380
-104 -257 -176 -516 -192 -695 -16 -176 18 -578 66 -794 56 -252 212 -706 344
-1001 54 -122 243 -501 291 -585 16 -27 42 -90 58 -140 15 -49 38 -106 50
-125 22 -36 27 -75 12 -84 -8 -5 -200 249 -227 299 -6 12 -19 31 -30 43 -10
12 -28 38 -39 56 -11 19 -60 97 -108 175 -101 164 -174 298 -272 501 -39 79
-134 273 -211 430 -78 157 -154 319 -168 360 -15 41 -54 179 -86 305 -61 241
-122 604 -154 925 -9 85 -23 209 -31 275 -52 412 -45 812 20 1141 30 147 110
396 169 520 160 338 559 748 891 916 79 40 127 57 136 49 4 -3 12 -28 18 -56z
m731 -1022 c100 -67 290 -183 300 -183 12 0 239 -147 328 -213 97 -72 97 -73
24 -169 -86 -113 -494 -621 -586 -728 -49 -58 -134 -163 -188 -235 -251 -332
-230 -310 -353 -371 -60 -31 -121 -63 -135 -73 -63 -44 -58 -33 40 94 25 33
101 136 168 228 67 92 164 216 215 275 51 59 136 161 188 227 53 66 135 165
183 220 98 111 207 249 269 340 53 78 119 197 112 203 -6 7 -1 13 -67 -88 -68
-105 -182 -248 -323 -405 -59 -66 -158 -183 -220 -260 -62 -77 -152 -185 -199
-239 -47 -55 -121 -147 -163 -205 -42 -58 -120 -164 -173 -236 -53 -71 -110
-154 -126 -184 -16 -29 -53 -81 -83 -115 -82 -91 -133 -165 -184 -263 -25 -48
-72 -119 -104 -158 -74 -89 -144 -180 -170 -223 l-20 -33 -12 128 c-11 109
-10 143 3 230 9 57 16 149 16 206 0 177 67 468 152 662 22 50 58 135 80 190
63 158 181 397 189 382 16 -28 39 -247 40 -371 0 -142 -16 -251 -51 -330 -24
-57 -23 -89 3 -94 23 -5 64 39 182 188 266 341 440 721 511 1120 20 113 24
385 6 474 -13 65 -19 77 -31 58 -5 -8 -8 -2 -8 15 0 16 -3 41 -7 57 -7 28 -6
27 56 -21 35 -27 97 -72 138 -100z m1139 -403 c4 0 44 -37 87 -82 137 -144
238 -287 295 -420 21 -49 55 -119 76 -156 20 -37 36 -70 35 -75 -1 -4 13 -29
31 -56 39 -56 45 -70 92 -224 36 -116 67 -253 79 -352 l7 -50 -47 80 c-26 44
-77 132 -114 195 -36 63 -79 151 -95 195 -34 96 -208 441 -292 581 -34 55
-115 176 -182 270 -66 93 -121 172 -121 176 0 5 32 -12 70 -37 39 -25 74 -45
79 -45z m778 -927 c141 -167 288 -359 377 -493 l36 -55 -42 -13 c-24 -6 -57
-19 -75 -27 -17 -8 -34 -15 -38 -15 -3 0 -39 -19 -78 -42 -106 -61 -180 -146
-299 -343 -55 -90 -148 -287 -148 -312 0 -30 19 -6 79 105 35 64 85 151 110
192 l46 74 6 -44 c12 -79 67 -243 104 -305 84 -143 270 -251 465 -270 77 -8
185 12 259 48 l51 24 12 -39 c25 -85 60 -74 57 19 l-2 65 76 72 c42 39 89 90
106 114 l29 43 11 -53 c47 -239 66 -496 66 -905 0 -284 3 -364 13 -368 16 -6
93 114 148 233 86 184 199 518 220 652 7 45 8 45 16 15 5 -16 9 -109 9 -205
l1 -175 -82 -200 c-45 -110 -106 -247 -136 -305 -60 -118 -191 -323 -261 -409
-61 -75 -322 -354 -342 -365 -9 -5 -43 -33 -77 -61 -212 -179 -586 -389 -870
-488 -54 -19 -160 -57 -234 -85 -174 -64 -260 -77 -467 -69 -238 9 -328 30
-519 117 -214 99 -743 415 -909 543 -27 21 -74 56 -102 78 -29 22 -53 43 -53
47 0 18 146 193 239 287 54 55 145 156 202 225 56 69 132 159 169 200 36 41
101 118 145 170 43 52 131 151 195 220 63 69 171 187 238 262 148 165 572 603
792 818 160 156 186 193 160 225 -7 8 -24 15 -37 15 -32 0 -158 -32 -313 -80
-171 -53 -321 -92 -327 -86 -3 3 10 27 29 53 18 26 77 118 131 204 53 86 125
196 160 245 35 49 108 156 162 237 l98 148 47 -73 c26 -41 87 -141 135 -224
128 -219 149 -242 176 -192 36 66 -74 535 -177 753 -16 33 -30 64 -33 69 -8
19 122 -125 246 -271z m532 52 c0 -5 -8 6 -19 25 -11 19 -19 40 -19 45 0 6 8
-6 19 -25 11 -19 19 -39 19 -45z m233 -335 c86 -153 131 -241 126 -245 -2 -2
-27 2 -57 9 l-54 12 -47 165 c-26 90 -57 186 -69 212 -11 27 -21 52 -21 55 0
8 19 -25 122 -208z m2346 55 c-3 -3 -9 2 -12 12 -6 14 -5 15 5 6 7 -7 10 -15
7 -18z m-5536 -442 c-50 -99 -86 -291 -71 -382 11 -70 57 -166 101 -213 19
-21 32 -38 27 -38 -11 0 -77 79 -95 115 -22 42 -41 103 -48 151 -7 48 17 203
45 293 10 35 17 66 14 69 -2 3 -25 -10 -49 -29 -39 -30 -48 -44 -72 -114 -34
-104 -43 -233 -20 -301 20 -60 20 -67 -1 -29 -11 19 -18 62 -21 116 -4 72 0
101 23 180 14 52 33 104 40 115 11 17 130 104 143 104 1 0 -6 -17 -16 -37z
m2631 -75 c-12 -31 -16 -78 -17 -173 0 -111 3 -139 22 -190 27 -71 85 -143
156 -191 29 -20 41 -33 27 -29 -16 5 -21 4 -17 -4 5 -7 1 -8 -9 -4 -11 4 -13
8 -5 13 7 4 -5 18 -30 35 -49 34 -100 101 -131 174 -19 46 -23 71 -23 185 -1
72 3 144 7 159 7 27 7 28 -15 16 -13 -7 -49 -39 -80 -71 -56 -57 -58 -60 -60
-116 l-2 -57 -3 57 c-3 44 0 62 14 78 10 12 25 30 34 41 13 15 137 116 146
118 1 1 -5 -18 -14 -41z m-2325 -73 c26 -28 32 -43 32 -80 0 -37 -6 -52 -32
-80 -58 -63 -146 -55 -195 18 -38 55 -23 140 29 168 65 35 117 27 166 -26z
m-503 28 c-84 -208 -56 -386 87 -538 77 -83 168 -130 293 -152 173 -30 294 -4
417 88 144 108 242 297 250 481 1 31 6 54 11 51 20 -12 112 -165 182 -304 41
-81 84 -154 96 -162 19 -14 17 -16 -48 -47 -37 -18 -93 -43 -123 -57 -30 -14
-102 -49 -160 -78 -136 -69 -233 -101 -346 -114 -214 -23 -496 41 -742 168
-43 23 -83 41 -89 41 -7 0 -18 9 -26 20 -13 19 -16 17 -56 -33 -52 -64 -262
-279 -268 -273 -3 2 -10 37 -17 77 l-12 72 43 66 c23 36 61 93 84 126 24 33
72 103 108 155 35 52 86 122 111 155 26 33 71 98 99 145 55 88 88 130 104 130
5 0 6 -8 2 -17z m3117 -35 c23 -18 51 -53 64 -82 21 -45 22 -52 8 -77 -21 -41
-68 -62 -121 -56 -52 6 -78 26 -94 74 -21 64 8 134 64 158 18 8 34 14 36 15 2
0 21 -14 43 -32z m-832 -6 c0 -5 -163 -172 -363 -373 -356 -358 -419 -424
-783 -825 -175 -192 -237 -264 -510 -589 -69 -82 -210 -233 -313 -335 l-187
-185 -61 74 -61 73 52 47 c28 25 82 82 120 126 38 44 121 136 185 205 64 69
163 175 219 237 56 61 176 180 267 264 91 83 165 155 165 159 0 4 73 82 163
172 89 90 196 200 238 244 42 43 164 164 272 267 108 103 232 232 277 286 l81
99 77 21 c42 12 95 25 117 30 22 5 41 9 43 10 1 1 2 -3 2 -7z m-1405 -32 c16
-19 16 -22 3 -11 -17 12 -18 9 -18 -43 0 -32 4 -56 10 -56 6 0 22 -11 35 -25
53 -52 16 -145 -57 -145 -26 0 -37 -6 -50 -28 -23 -39 -83 -99 -128 -127 -95
-60 -245 -83 -315 -50 -23 11 -24 13 -5 7 14 -4 63 -7 110 -7 78 0 92 4 162
38 150 73 213 179 225 380 3 53 7 96 7 95 1 -2 10 -14 21 -28z m36 -47 c13
-16 12 -17 -3 -4 -10 7 -18 15 -18 17 0 8 8 3 21 -13z m2769 -94 c0 -15 -3
-35 -6 -44 -7 -17 -62 -50 -71 -42 -2 3 4 22 15 44 11 21 23 53 27 72 7 33 8
34 21 16 8 -10 14 -31 14 -46z m-2711 -40 c-17 -74 -79 -181 -146 -250 -111
-116 -222 -157 -374 -141 -74 9 -73 9 41 9 109 0 118 2 184 33 133 63 265 229
283 355 3 24 9 42 13 40 4 -3 4 -23 -1 -46z m1756 -155 c9 -14 15 -28 12 -30
-9 -9 -46 62 -62 121 -28 102 -26 114 4 22 16 -48 36 -99 46 -113z m-2648 -32
c55 -84 148 -150 241 -172 29 -7 51 -15 48 -18 -8 -7 -94 18 -139 40 -22 11
-59 38 -84 61 -53 49 -117 137 -100 137 2 0 18 -21 34 -48z m2750 -111 c55
-50 145 -99 221 -121 23 -7 40 -15 38 -18 -3 -2 -34 6 -70 18 -71 23 -170 83
-216 130 -35 36 -62 85 -52 95 4 4 11 -7 16 -25 5 -18 32 -52 63 -79z m-2523
24 c11 -8 15 -15 10 -15 -6 0 -19 7 -30 15 -10 8 -14 14 -9 14 6 0 19 -6 29
-14z m2811 -36 c40 -8 40 -8 -8 -5 -27 2 -54 9 -60 16 -10 10 -8 11 8 5 11 -4
38 -12 60 -16z m190 6 c-16 -8 -43 -14 -60 -13 -24 0 -21 2 14 9 24 5 46 11
49 14 3 3 10 5 16 4 6 0 -2 -7 -19 -14z m-102 -22 c-7 -2 -21 -2 -30 0 -10 3
-4 5 12 5 17 0 24 -2 18 -5z m139 -105 c-33 -11 -77 -16 -147 -15 l-100 0 110
7 c113 6 170 23 160 47 -15 38 -14 44 4 13 l19 -35 -46 -17z m-3386 -325 c-53
-102 -242 -502 -261 -551 -10 -29 -13 -31 -19 -15 -24 60 -128 392 -146 462
-12 47 -28 97 -36 112 -8 16 -14 30 -14 34 0 3 30 5 68 6 37 0 141 8 232 18
91 10 178 19 193 20 l28 1 -45 -87z m461 -1652 c78 -56 349 -224 471 -291 l82
-45 0 -173 c0 -258 -32 -374 -140 -511 -39 -49 -46 -81 -19 -81 24 0 95 87
137 168 58 110 77 209 68 357 -3 61 -12 138 -20 172 l-13 63 61 -36 c277 -159
483 -214 799 -214 169 0 277 19 388 66 35 14 126 48 202 75 76 27 151 56 167
64 16 8 30 15 32 15 2 0 3 -84 3 -187 0 -226 8 -264 96 -442 49 -99 74 -138
124 -189 59 -60 85 -71 85 -36 0 8 -25 45 -56 82 -63 76 -156 257 -179 347
-16 64 -31 193 -39 341 l-5 91 152 75 c128 63 258 139 402 233 16 11 26 15 22
9 -12 -20 35 -50 239 -153 111 -56 257 -139 325 -184 68 -45 206 -134 307
-197 101 -63 230 -150 288 -193 126 -93 257 -219 252 -242 -2 -12 -33 -25
-113 -45 -60 -15 -151 -44 -201 -63 -50 -19 -196 -69 -325 -111 -703 -228
-1174 -533 -1576 -1022 -32 -39 -130 -158 -219 -265 -191 -231 -205 -250 -244
-320 -16 -30 -30 -49 -30 -44 0 15 71 143 141 253 98 154 170 275 267 447 50
88 125 216 168 285 42 69 118 193 167 275 49 83 118 199 154 258 35 60 63 111
60 113 -9 9 -107 -125 -208 -282 -56 -87 -114 -177 -129 -199 -58 -85 -224
-361 -311 -517 -50 -89 -126 -217 -168 -283 -43 -66 -94 -147 -113 -180 -75
-125 -187 -410 -169 -428 14 -14 40 -1 51 25 10 22 10 22 5 -3 -2 -14 -7 -48
-10 -75 -4 -27 -10 -53 -14 -57 -4 -4 -26 -9 -49 -10 -32 -1 -45 4 -62 23
l-21 25 4 -32 c2 -18 0 -33 -4 -33 -14 0 -96 118 -192 281 -189 318 -360 535
-598 759 -202 190 -238 221 -468 389 -257 189 -341 246 -423 287 -82 41 -305
134 -323 134 -14 0 -95 33 -135 55 -65 35 -283 97 -456 129 -299 56 -493 69
-700 45 -53 -6 -98 -9 -100 -6 -10 9 245 273 339 350 58 48 147 133 199 189
145 160 144 159 218 164 48 4 88 -1 148 -17 l84 -22 -39 -33 c-21 -19 -87 -68
-148 -110 -98 -69 -159 -117 -342 -267 -28 -23 -77 -59 -107 -80 -55 -37 -70
-67 -43 -84 6 -4 91 -11 187 -14 190 -7 288 -24 578 -99 220 -57 293 -88 612
-254 384 -200 406 -213 550 -318 116 -85 171 -128 420 -328 96 -78 230 -217
332 -345 92 -116 155 -220 258 -430 98 -198 172 -325 189 -325 5 0 3 12 -4 28
-7 15 -57 124 -110 242 -107 237 -122 265 -208 395 -103 154 -289 363 -412
460 -27 22 -89 72 -136 111 -120 99 -338 261 -439 326 -78 51 -203 117 -618
329 -90 47 -195 91 -255 110 -56 17 -131 39 -167 50 -163 49 -403 91 -557 98
l-152 6 87 62 c48 34 130 99 182 145 52 47 137 113 189 148 52 35 113 79 135
99 97 87 193 157 313 229 70 43 183 119 251 170 68 51 127 92 132 92 4 0 34
-37 66 -82 86 -124 219 -292 289 -365 48 -50 67 -64 86 -61 16 2 25 11 27 25
3 21 -18 64 -179 363 -43 80 -85 162 -94 183 l-16 38 63 28 c99 44 112 50 125
50 7 1 43 -21 80 -48z m3581 -88 c131 -76 214 -133 405 -275 308 -230 402
-303 507 -393 134 -115 350 -330 373 -372 l18 -33 -78 0 c-172 0 -440 -33
-573 -70 -259 -72 -606 -178 -701 -214 -353 -135 -718 -339 -981 -548 -57 -45
-233 -212 -391 -370 -301 -302 -353 -365 -423 -516 -18 -40 -56 -107 -83 -150
-27 -42 -64 -107 -82 -144 -29 -60 -37 -69 -67 -74 -18 -4 -36 -4 -39 0 -3 3
-1 40 4 81 9 59 23 99 68 188 32 61 75 138 96 169 71 104 541 662 645 765 255
253 576 465 924 611 155 65 903 322 980 337 87 16 111 42 95 102 -16 67 -263
270 -513 423 -75 46 -223 141 -328 210 -106 69 -199 130 -208 135 -14 8 0 21
80 75 52 36 112 77 131 93 20 15 38 27 40 27 3 0 48 -25 101 -57z"/>
<path d="M5517 4610 c-18 -87 -105 -153 -243 -186 -132 -31 -214 -5 -326 103
-64 61 -88 71 -88 37 0 -29 116 -133 182 -164 52 -25 76 -30 135 -30 90 0 215
38 275 83 57 43 92 112 80 158 l-8 34 -7 -35z"/>
<path d="M4855 3914 c-27 -7 -130 -28 -227 -46 -147 -27 -178 -35 -178 -49 0
-27 109 -120 203 -172 151 -85 338 -135 542 -144 116 -5 123 -4 198 25 93 36
292 152 394 229 40 30 75 58 78 62 9 16 -130 62 -214 72 -47 5 -115 14 -150
21 -62 10 -91 9 -254 -11 -67 -9 -86 -7 -140 9 -73 23 -178 25 -252 4z"/>
<path d="M3620 2446 c0 -2 8 -10 18 -17 15 -13 16 -12 3 4 -13 16 -21 21 -21
13z"/>
<path d="M4080 2305 c0 -5 219 -405 230 -420 9 -12 255 -451 375 -670 129
-235 275 -527 338 -675 71 -168 108 -235 127 -235 27 0 22 42 -13 112 -19 37
-51 107 -71 156 -165 399 -986 1842 -986 1732z"/>
<path d="M7589 1724 c-15 -7 -42 -35 -61 -61 -56 -78 -263 -413 -298 -483 -25
-50 -70 -162 -70 -175 0 -1 57 -24 126 -51 l125 -49 -6 -45 c-10 -72 -41 -183
-100 -365 -56 -172 -74 -245 -60 -245 5 0 28 15 51 32 79 59 474 673 474 736
0 39 -52 75 -159 110 -93 31 -102 36 -98 55 3 12 9 40 12 62 4 22 16 64 26 94
24 66 77 272 85 332 8 56 -8 74 -47 53z m-15 -116 c-3 -18 -23 -89 -44 -158
-21 -69 -41 -145 -45 -170 -4 -25 -14 -60 -21 -79 -12 -30 -12 -37 1 -57 8
-12 25 -25 37 -29 115 -33 218 -86 218 -111 0 -6 -24 -43 -54 -82 -30 -38 -80
-114 -112 -168 -128 -219 -250 -401 -260 -391 -6 6 40 134 81 227 57 130 95
241 95 280 0 63 -18 82 -100 107 -122 37 -151 53 -144 77 21 67 177 338 318
553 27 42 37 42 30 1z"/>
</g>
</svg>
