<svg width="60" height="60" viewBox="0 0 60 60" fill="none" xmlns="http://www.w3.org/2000/svg">
<g filter="url(#filter0_dd)">
<rect x="5" y="5" width="50" height="50" rx="8" fill="white"/>
</g>
<path d="M13.262 32.4731C13.1266 32.5535 12.9827 32.634 12.8304 32.7144C12.6822 32.7905 12.5151 32.8582 12.3289 32.9175C12.1427 32.9767 11.9332 33.0254 11.7005 33.0635C11.472 33.1016 11.2117 33.1206 10.9197 33.1206C10.4754 33.1206 10.0734 33.0465 9.71365 32.8984C9.35818 32.7503 9.0535 32.5345 8.79959 32.251C8.54991 31.9632 8.35737 31.612 8.22195 31.1973C8.08654 30.7783 8.01883 30.3001 8.01883 29.7627C8.01883 29.3141 8.07384 28.8867 8.18387 28.4805C8.29389 28.0742 8.46105 27.7166 8.68533 27.4077C8.91385 27.0988 9.20372 26.8534 9.55496 26.6714C9.9062 26.4852 10.323 26.3921 10.8054 26.3921C11.2625 26.3921 11.656 26.4725 11.9861 26.6333C12.3162 26.7941 12.587 27.012 12.7986 27.2871C13.0144 27.5579 13.1731 27.8774 13.2747 28.2456C13.3762 28.6095 13.427 28.9967 13.427 29.4072V29.9341H9.19949C9.20372 30.2261 9.23546 30.5096 9.29471 30.7847C9.35818 31.0555 9.45763 31.2967 9.59305 31.5083C9.72846 31.7157 9.9062 31.8828 10.1262 32.0098C10.3463 32.1325 10.6193 32.1938 10.9451 32.1938C11.3344 32.1938 11.6857 32.1452 11.9988 32.0479C12.3162 31.9505 12.6166 31.813 12.9002 31.6353L13.262 32.4731ZM10.7801 27.3188C10.5769 27.3188 10.3865 27.3506 10.2088 27.4141C10.0353 27.4733 9.88081 27.5685 9.74539 27.6997C9.61421 27.8267 9.50418 27.9896 9.41531 28.1885C9.33068 28.3831 9.27355 28.6159 9.24393 28.8867C9.23969 28.9079 9.23758 28.9375 9.23758 28.9756C9.23758 29.0137 9.23758 29.0539 9.23758 29.0962H12.1829C12.1744 28.8634 12.1469 28.6392 12.1004 28.4233C12.0538 28.2075 11.9776 28.0192 11.8719 27.8584C11.7661 27.6934 11.6243 27.5622 11.4466 27.4648C11.2688 27.3675 11.0467 27.3188 10.7801 27.3188ZM16.8672 29.6484L14.6265 26.5H16.0801L17.6607 28.9058L19.2603 26.5H20.6441L18.3462 29.6865L20.6885 33H19.2349L17.5528 30.48L15.8643 33H14.5059L16.8672 29.6484ZM22.2244 35.6406V28.436C22.2244 28.2456 22.2223 28.0425 22.218 27.8267C22.2138 27.6066 22.2096 27.4014 22.2053 27.2109C22.1969 26.9909 22.1905 26.7539 22.1863 26.5H23.3098L23.3923 27.4712C23.532 27.2638 23.6843 27.0903 23.8494 26.9507C24.0144 26.811 24.1837 26.6989 24.3572 26.6143C24.5349 26.5296 24.7105 26.4704 24.884 26.4365C25.0575 26.4027 25.2247 26.3857 25.3855 26.3857C25.7283 26.3857 26.0541 26.4556 26.363 26.5952C26.672 26.7349 26.9428 26.9443 27.1755 27.2236C27.4083 27.5029 27.5924 27.8542 27.7278 28.2773C27.8674 28.7005 27.9373 29.1956 27.9373 29.7627C27.9373 30.334 27.8653 30.8291 27.7214 31.248C27.5818 31.667 27.3893 32.0161 27.1438 32.2954C26.8984 32.5705 26.6127 32.7778 26.2869 32.9175C25.9653 33.0529 25.6246 33.1206 25.2649 33.1206C24.8671 33.1206 24.5116 33.0444 24.1985 32.8921C23.8896 32.7355 23.6166 32.5366 23.3796 32.2954L23.4114 33.4824V35.6406H22.2244ZM25.0935 32.2002C25.4448 32.2002 25.7304 32.124 25.9504 31.9717C26.1705 31.8193 26.3419 31.6247 26.4646 31.3877C26.5873 31.1507 26.6699 30.8862 26.7122 30.5942C26.7587 30.298 26.782 30.0081 26.782 29.7246C26.782 29.3903 26.7545 29.0771 26.6995 28.7852C26.6445 28.4889 26.5535 28.2329 26.4265 28.0171C26.2996 27.8013 26.1324 27.632 25.9251 27.5093C25.7177 27.3823 25.4617 27.3188 25.157 27.3188C24.9242 27.3188 24.7021 27.3633 24.4905 27.4521C24.2789 27.541 24.0927 27.6532 23.9319 27.7886C23.7753 27.924 23.6484 28.0742 23.551 28.2393C23.4579 28.4001 23.4114 28.5566 23.4114 28.709V30.6958C23.4114 30.8651 23.4452 31.0386 23.5129 31.2163C23.5807 31.394 23.6843 31.557 23.824 31.7051C23.9636 31.849 24.1371 31.9674 24.3445 32.0605C24.5561 32.1536 24.8058 32.2002 25.0935 32.2002ZM29.8477 28.1694C29.8477 28.1144 29.8455 28.0171 29.8413 27.8774C29.8413 27.7378 29.8392 27.5854 29.835 27.4204C29.835 27.2554 29.8307 27.084 29.8223 26.9062C29.818 26.7243 29.8138 26.5868 29.8096 26.4937H30.9204L30.9775 27.6235C31.1172 27.3993 31.2695 27.2088 31.4346 27.0522C31.5996 26.8957 31.7646 26.7687 31.9297 26.6714C32.099 26.5741 32.264 26.5042 32.4248 26.4619C32.5856 26.4154 32.7337 26.3921 32.8691 26.3921C32.9538 26.3921 33.0448 26.3963 33.1421 26.4048C33.2437 26.409 33.3389 26.4175 33.4277 26.4302L33.3516 27.5981C33.2373 27.577 33.1294 27.5601 33.0278 27.5474C32.9263 27.5347 32.8226 27.5283 32.7168 27.5283C32.4206 27.5283 32.1667 27.5791 31.9551 27.6807C31.7435 27.778 31.57 27.9155 31.4346 28.0933C31.3034 28.271 31.2061 28.4826 31.1426 28.728C31.0791 28.9735 31.0474 29.2443 31.0474 29.5405V33H29.8477V28.1694ZM39.6291 32.4731C39.4937 32.5535 39.3498 32.634 39.1975 32.7144C39.0494 32.7905 38.8822 32.8582 38.696 32.9175C38.5098 32.9767 38.3004 33.0254 38.0676 33.0635C37.8391 33.1016 37.5788 33.1206 37.2869 33.1206C36.8425 33.1206 36.4405 33.0465 36.0808 32.8984C35.7253 32.7503 35.4206 32.5345 35.1667 32.251C34.9171 31.9632 34.7245 31.612 34.5891 31.1973C34.4537 30.7783 34.386 30.3001 34.386 29.7627C34.386 29.3141 34.441 28.8867 34.551 28.4805C34.661 28.0742 34.8282 27.7166 35.0525 27.4077C35.281 27.0988 35.5709 26.8534 35.9221 26.6714C36.2733 26.4852 36.6902 26.3921 37.1726 26.3921C37.6296 26.3921 38.0232 26.4725 38.3533 26.6333C38.6833 26.7941 38.9542 27.012 39.1658 27.2871C39.3816 27.5579 39.5403 27.8774 39.6418 28.2456C39.7434 28.6095 39.7942 28.9967 39.7942 29.4072V29.9341H35.5666C35.5709 30.2261 35.6026 30.5096 35.6619 30.7847C35.7253 31.0555 35.8248 31.2967 35.9602 31.5083C36.0956 31.7157 36.2733 31.8828 36.4934 32.0098C36.7135 32.1325 36.9864 32.1938 37.3122 32.1938C37.7016 32.1938 38.0528 32.1452 38.366 32.0479C38.6833 31.9505 38.9838 31.813 39.2673 31.6353L39.6291 32.4731ZM37.1472 27.3188C36.9441 27.3188 36.7537 27.3506 36.5759 27.4141C36.4024 27.4733 36.248 27.5685 36.1125 27.6997C35.9814 27.8267 35.8713 27.9896 35.7825 28.1885C35.6978 28.3831 35.6407 28.6159 35.6111 28.8867C35.6068 28.9079 35.6047 28.9375 35.6047 28.9756C35.6047 29.0137 35.6047 29.0539 35.6047 29.0962H38.55C38.5416 28.8634 38.5141 28.6392 38.4675 28.4233C38.421 28.2075 38.3448 28.0192 38.239 27.8584C38.1332 27.6934 37.9914 27.5622 37.8137 27.4648C37.636 27.3675 37.4138 27.3188 37.1472 27.3188ZM41.5395 31.5972C41.6665 31.6945 41.8061 31.7812 41.9585 31.8574C42.1108 31.9294 42.2695 31.9907 42.4345 32.0415C42.5996 32.0923 42.7667 32.1304 42.936 32.1558C43.1095 32.1812 43.2767 32.1938 43.4375 32.1938C43.611 32.1938 43.776 32.1748 43.9326 32.1367C44.0892 32.0986 44.2246 32.0394 44.3388 31.959C44.4573 31.8786 44.5504 31.7791 44.6181 31.6606C44.6901 31.5379 44.7261 31.3962 44.7261 31.2354C44.7261 31.1211 44.7049 31.0195 44.6626 30.9307C44.6203 30.8376 44.5462 30.7487 44.4404 30.6641C44.3388 30.5794 44.1971 30.4969 44.0151 30.4165C43.8374 30.3319 43.6131 30.2388 43.3423 30.1372C43.0418 30.0272 42.7667 29.9172 42.5171 29.8071C42.2716 29.6971 42.06 29.5723 41.8823 29.4326C41.7088 29.2887 41.5734 29.1195 41.4761 28.9248C41.3787 28.7259 41.3301 28.4847 41.3301 28.2012C41.3301 27.8965 41.3935 27.6299 41.5205 27.4014C41.6474 27.1729 41.8167 26.9845 42.0283 26.8364C42.2441 26.6883 42.4917 26.5783 42.771 26.5063C43.0503 26.4302 43.3401 26.3921 43.6406 26.3921C44.0215 26.3921 44.4023 26.4492 44.7832 26.5635C45.1683 26.6777 45.5195 26.8491 45.8369 27.0776L45.4497 27.8901C45.31 27.8013 45.164 27.723 45.0117 27.6553C44.8594 27.5833 44.7049 27.5241 44.5483 27.4775C44.3917 27.4268 44.2373 27.3887 44.0849 27.3633C43.9368 27.3337 43.7972 27.3188 43.666 27.3188C43.501 27.3188 43.3444 27.3358 43.1963 27.3696C43.0524 27.4035 42.9254 27.4543 42.8154 27.522C42.7096 27.5854 42.625 27.668 42.5615 27.7695C42.498 27.8669 42.4663 27.979 42.4663 28.106C42.4663 28.2244 42.4959 28.3324 42.5552 28.4297C42.6144 28.527 42.699 28.618 42.8091 28.7026C42.9233 28.783 43.0608 28.8613 43.2217 28.9375C43.3867 29.0137 43.5729 29.0877 43.7803 29.1597C44.1653 29.2993 44.4933 29.4368 44.7641 29.5723C45.035 29.7077 45.255 29.8516 45.4243 30.0039C45.5936 30.1562 45.7163 30.3255 45.7925 30.5117C45.8686 30.6937 45.9067 30.9053 45.9067 31.1465C45.9067 31.485 45.8327 31.7791 45.6845 32.0288C45.5407 32.2785 45.3502 32.4837 45.1133 32.6445C44.8763 32.8053 44.6054 32.9238 44.3008 33C43.9961 33.0804 43.6829 33.1206 43.3613 33.1206C42.9551 33.1206 42.5721 33.0677 42.2124 32.9619C41.8569 32.8519 41.5078 32.6826 41.165 32.4541L41.5395 31.5972ZM47.6521 31.5972C47.779 31.6945 47.9187 31.7812 48.071 31.8574C48.2234 31.9294 48.382 31.9907 48.5471 32.0415C48.7121 32.0923 48.8793 32.1304 49.0486 32.1558C49.2221 32.1812 49.3892 32.1938 49.55 32.1938C49.7235 32.1938 49.8886 32.1748 50.0451 32.1367C50.2017 32.0986 50.3371 32.0394 50.4514 31.959C50.5699 31.8786 50.663 31.7791 50.7307 31.6606C50.8026 31.5379 50.8386 31.3962 50.8386 31.2354C50.8386 31.1211 50.8174 31.0195 50.7751 30.9307C50.7328 30.8376 50.6587 30.7487 50.5529 30.6641C50.4514 30.5794 50.3096 30.4969 50.1277 30.4165C49.9499 30.3319 49.7256 30.2388 49.4548 30.1372C49.1543 30.0272 48.8793 29.9172 48.6296 29.8071C48.3842 29.6971 48.1726 29.5723 47.9948 29.4326C47.8213 29.2887 47.6859 29.1195 47.5886 28.9248C47.4913 28.7259 47.4426 28.4847 47.4426 28.2012C47.4426 27.8965 47.5061 27.6299 47.633 27.4014C47.76 27.1729 47.9293 26.9845 48.1408 26.8364C48.3567 26.6883 48.6042 26.5783 48.8835 26.5063C49.1628 26.4302 49.4527 26.3921 49.7531 26.3921C50.134 26.3921 50.5149 26.4492 50.8957 26.5635C51.2808 26.6777 51.632 26.8491 51.9494 27.0776L51.5622 27.8901C51.4226 27.8013 51.2766 27.723 51.1242 27.6553C50.9719 27.5833 50.8174 27.5241 50.6609 27.4775C50.5043 27.4268 50.3498 27.3887 50.1975 27.3633C50.0494 27.3337 49.9097 27.3188 49.7785 27.3188C49.6135 27.3188 49.4569 27.3358 49.3088 27.3696C49.1649 27.4035 49.038 27.4543 48.9279 27.522C48.8222 27.5854 48.7375 27.668 48.674 27.7695C48.6106 27.8669 48.5788 27.979 48.5788 28.106C48.5788 28.2244 48.6084 28.3324 48.6677 28.4297C48.7269 28.527 48.8116 28.618 48.9216 28.7026C49.0359 28.783 49.1734 28.8613 49.3342 28.9375C49.4992 29.0137 49.6854 29.0877 49.8928 29.1597C50.2779 29.2993 50.6058 29.4368 50.8767 29.5723C51.1475 29.7077 51.3676 29.8516 51.5368 30.0039C51.7061 30.1562 51.8288 30.3255 51.905 30.5117C51.9812 30.6937 52.0193 30.9053 52.0193 31.1465C52.0193 31.485 51.9452 31.7791 51.7971 32.0288C51.6532 32.2785 51.4628 32.4837 51.2258 32.6445C50.9888 32.8053 50.718 32.9238 50.4133 33C50.1086 33.0804 49.7955 33.1206 49.4738 33.1206C49.0676 33.1206 48.6846 33.0677 48.3249 32.9619C47.9695 32.8519 47.6203 32.6826 47.2776 32.4541L47.6521 31.5972Z" fill="black"/>
<defs>
<filter id="filter0_dd" x="0" y="0" width="60" height="60" filterUnits="userSpaceOnUse" color-interpolation-filters="sRGB">
<feFlood flood-opacity="0" result="BackgroundImageFix"/>
<feColorMatrix in="SourceAlpha" type="matrix" values="0 0 0 0 0 0 0 0 0 0 0 0 0 0 0 0 0 0 127 0"/>
<feOffset dx="-1" dy="-1"/>
<feGaussianBlur stdDeviation="2"/>
<feColorMatrix type="matrix" values="0 0 0 0 0 0 0 0 0 0 0 0 0 0 0 0 0 0 0.2 0"/>
<feBlend mode="normal" in2="BackgroundImageFix" result="effect1_dropShadow"/>
<feColorMatrix in="SourceAlpha" type="matrix" values="0 0 0 0 0 0 0 0 0 0 0 0 0 0 0 0 0 0 127 0"/>
<feOffset dx="1" dy="1"/>
<feGaussianBlur stdDeviation="2"/>
<feColorMatrix type="matrix" values="0 0 0 0 0 0 0 0 0 0 0 0 0 0 0 0 0 0 0.25 0"/>
<feBlend mode="normal" in2="effect1_dropShadow" result="effect2_dropShadow"/>
<feBlend mode="normal" in="SourceGraphic" in2="effect2_dropShadow" result="shape"/>
</filter>
</defs>
</svg>
