<svg width="40" height="40" viewBox="0 0 40 40" fill="none" xmlns="http://www.w3.org/2000/svg">
<path d="M3.33333 8.33334C1.49233 8.33334 0 9.83334 0 11.6667V35C0 36.8333 1.49238 38.3333 3.33333 38.3333H36.6667C38.5083 38.3333 40 36.8333 40 35V11.6667C40 9.83334 38.5083 8.33334 36.6667 8.33334H3.33333Z" fill="#2980B9"/>
<path d="M5.00008 1.66667C3.15908 1.66667 1.66675 3.16667 1.66675 5.00001V28.3333C1.66675 30.1667 3.15908 31.6667 5.00008 31.6667H23.3334H31.6667H35.0001C36.8417 31.6667 38.3334 30.1667 38.3334 28.3333V13.3333V8.33334C38.3334 6.50001 36.8417 5.00001 35.0001 5.00001H31.6667H23.3334H21.6667L16.6667 1.66667H5.00008Z" fill="#2980B9"/>
<path d="M38.3334 23.3333V10C38.3334 8.16667 36.8417 6.66667 35.0001 6.66667H16.6667H8.33341H5.00008C3.15908 6.66667 1.66675 8.16667 1.66675 10V23.3333H38.3334Z" fill="#BDC3C7"/>
<path d="M3.33333 8.33334C1.49233 8.33334 0 9.83334 0 11.6667V21.6667V23.3333V33.3333C0 35.1667 1.49238 36.6667 3.33333 36.6667H36.6667C38.5083 36.6667 40 35.1667 40 33.3333V23.3333V21.6667V11.6667C40 9.83334 38.5083 8.33334 36.6667 8.33334H3.33333Z" fill="#3498DB"/>
<path d="M8.75008 13.3333C8.17708 13.3333 7.69975 13.4999 7.29175 13.8332C6.88375 14.3332 6.66675 14.8333 6.66675 15.3333V31.1666C6.66675 31.8333 6.88375 32.1666 7.29175 32.6666C7.69975 33 8.17708 33.3333 8.75008 33.3333H28.3334H30.0001H31.2501C31.8234 33.3333 32.3001 33 32.7084 32.6666C33.1167 32.1666 33.3334 31.8333 33.3334 31.1666V15.3333C33.3334 14.8333 33.1167 14.3332 32.7084 13.8332C32.3001 13.4999 31.8234 13.3333 31.2501 13.3333H30.0001H28.3334H8.75008ZM8.75008 15H28.3334H30.0001H31.2501H31.5634C31.6501 15.1667 31.6667 15.1666 31.6667 15.3333V31.1666C31.6667 31.3333 31.6501 31.3334 31.5634 31.5C31.4851 31.5 31.3634 31.6667 31.2501 31.6667H30.0001H28.3334H8.75008C8.63725 31.6667 8.52441 31.5 8.43758 31.5C8.35941 31.3334 8.33341 31.3333 8.33341 31.1666V15.3333C8.33341 15.1666 8.35941 15.1667 8.43758 15H8.75008ZM12.5001 16.6667C11.8056 16.6667 11.2154 16.8334 10.7292 17.3334C10.2431 17.8334 10.0001 18.3333 10.0001 19.1667C10.0001 19.8333 10.2431 20.3333 10.7292 20.8333C11.2154 21.3333 11.8056 21.6667 12.5001 21.6667C13.1946 21.6667 13.7847 21.3333 14.2709 20.8333C14.7571 20.3333 15.0001 19.8333 15.0001 19.1667C15.0001 18.3333 14.7571 17.8334 14.2709 17.3334C13.7847 16.8334 13.1946 16.6667 12.5001 16.6667ZM22.9167 18.6666L16.2501 25.3333L14.1667 23.3333L10.0001 27.5V30H30.0001V26.6667L22.9167 18.6666Z" fill="#2980B9"/>
</svg>
