<svg width="35" height="35" viewBox="0 0 35 35" fill="none" xmlns="http://www.w3.org/2000/svg">
<path fill-rule="evenodd" clip-rule="evenodd" d="M17.5 0C27.1652 0 35 8.03237 35 17.9426C35 25.8683 29.9915 32.5919 23.0422 34.9666C22.155 35.1434 21.84 34.5831 21.84 34.1053C21.84 33.5138 21.861 31.5819 21.861 29.1809C21.861 27.5079 21.301 26.416 20.6728 25.8595C24.57 25.415 28.665 23.8976 28.665 17.0061C28.665 15.0461 27.986 13.4467 26.8625 12.1902C27.0445 11.7369 27.6447 9.91191 26.691 7.44091C26.691 7.44091 25.2245 6.96013 21.8837 9.28063C20.4855 8.88338 18.9875 8.6835 17.5 8.6765C16.0125 8.6835 14.5163 8.88338 13.1198 9.28063C9.7755 6.96013 8.3055 7.44091 8.3055 7.44091C7.35525 9.91191 7.9555 11.7369 8.13575 12.1902C7.0175 13.4467 6.33326 15.0461 6.33326 17.0061C6.33326 23.8801 10.4195 25.4207 14.3063 25.874C13.8058 26.322 13.3525 27.1123 13.195 28.2726C12.1975 28.7311 9.6635 29.5246 8.1025 26.7823C8.1025 26.7823 7.17675 25.0583 5.41975 24.9323C5.41975 24.9323 3.7135 24.9097 5.30075 26.0227C5.30075 26.0227 6.447 26.5739 7.24325 28.6477C7.24325 28.6477 8.27051 31.8501 13.139 30.7651C13.1478 32.2649 13.1635 33.6783 13.1635 34.1053C13.1635 34.5796 12.8415 35.1346 11.9682 34.9683C5.01374 32.5971 0 25.8701 0 17.9426C0 8.03237 7.8365 0 17.5 0Z" fill="white"/>
</svg>
