<svg width="12" height="18" viewBox="0 0 12 18" fill="none" xmlns="http://www.w3.org/2000/svg">
<path d="M10.6257 9.2596C11.8135 8.05864 11.8135 6.10456 10.6257 4.9036C10.0497 4.32088 9.28338 4 8.46834 4C8.4681 4 8.4681 4 8.4681 4C7.65306 4 6.8865 4.32088 6.31026 4.9036L5.75826 5.4616L5.20626 4.9036C4.63002 4.32088 3.8637 4 3.04842 4C2.23338 4 1.46706 4.32088 0.89082 4.9036C-0.29694 6.10456 -0.29694 8.05864 0.89082 9.2596L5.75826 14.1813L10.6257 9.2596ZM1.2321 5.24104C1.71738 4.75024 2.36274 4.48 3.04842 4.48C3.73434 4.48 4.3797 4.75024 4.86498 5.24104L5.75826 6.1444L6.65154 5.24104C7.13682 4.75024 7.78218 4.48 8.4681 4.48C9.15402 4.48 9.79914 4.75024 10.2844 5.24104C11.2883 6.256 11.2883 7.9072 10.2844 8.92216L5.75826 13.4987L1.2321 8.92216C0.22818 7.9072 0.22818 6.25576 1.2321 5.24104Z" fill="black"/>
</svg>
