<svg width="12" height="18" viewBox="0 0 12 18" fill="none" xmlns="http://www.w3.org/2000/svg">
<path d="M11.1496 3.96879C10.5825 3.32284 9.79915 3 8.79905 3C8.52228 3 8.23982 3.05599 7.95193 3.1679C7.66393 3.27991 7.39601 3.43101 7.14847 3.62111C6.9006 3.81115 6.68759 3.98962 6.50888 4.15623C6.33039 4.32291 6.1607 4.50003 6.00001 4.68748C5.83925 4.50003 5.66961 4.32291 5.49109 4.15623C5.31246 3.98962 5.09935 3.81126 4.85153 3.62111C4.60375 3.43093 4.33588 3.27993 4.04795 3.1679C3.76004 3.05601 3.47763 3 3.20086 3C2.20082 3 1.41739 3.32292 0.850443 3.96879C0.283497 4.61461 0 5.51039 0 6.65623C0 7.0052 0.0525385 7.36465 0.157404 7.73431C0.26227 8.10411 0.381772 8.41926 0.515675 8.67962C0.649554 8.93996 0.801376 9.19395 0.971024 9.44135C1.14067 9.68878 1.26465 9.8592 1.34269 9.95303C1.42079 10.0467 1.4822 10.1144 1.52683 10.156L5.70535 14.8592C5.78573 14.9531 5.88393 15 5.99999 15C6.11604 15 6.21432 14.9531 6.29465 14.8594L10.4665 10.1718C11.4889 8.9792 12 7.80729 12 6.65623C12 5.51039 11.7165 4.61461 11.1496 3.96879Z" fill="black"/>
</svg>
