<svg xmlns="http://www.w3.org/2000/svg" enable-background="new 0 0 24 24" viewBox="0 0 24 24"><path fill="#99415B" d="M20.97 11.819l-.001.001c0 .965-.791 1.75-1.764 1.75-.974-.003-1.762-.787-1.762-1.753 0-.555.26-1.049.665-1.37l.004-.003.007-.007c.056-.042.119-.084.182-.125 0 0 .008 0 .008-.007.028-.014.056-.035.084-.05.007 0 .014-.006.021-.006.028-.014.063-.028.098-.042.034-.014.071-.027.099-.041.007 0 .013-.007.02-.007.028-.007.056-.021.085-.028.007 0 .02-.007.028-.007.034-.007.063-.014.098-.02h.007l.105-.022c.007 0 .02 0 .028-.007.028 0 .056-.007.084-.007H19.1c.035 0 .071-.007.112-.007h.091c.028 0 .05 0 .078.007h.014c.056.007.112.014.168.028C20.371 10.272 20.968 10.976 20.97 11.819zM10.196 11.813v-.005c0-.812.561-1.495 1.318-1.687l.012-.003v-.001l.098-.02h.02l.084-.015h.028l.077-.007h.273l.07.007.035.007.077.014.028.007.098.02h.007l.083.029.028.007.07.027.021.007.084.035h.007l.091.05-.001-.001h.007l.084.048.013.007.078.049.007.007.238.201.007.007c.299.313.484.736.484 1.203v.007c-.033.942-.811 1.693-1.765 1.693-.954 0-1.732-.751-1.765-1.69V11.813L10.196 11.813z"/><path fill="#99415B" d="M2.496,17.802c0.168-1.015,0.637-1.967,1.086-2.877l0.077-0.16c0.153,0.056,0.315,0.098,0.483,0.126c-0.266,1.473,0.49,2.994,1.962,3.745l0.266,0.139l0.287-0.104c1.225-0.431,2.361-1.132,3.363-2.07c0.545-0.505,1.025-1.068,1.434-1.681l0.023-0.035c0.161,0.027,0.322,0.034,0.484,0.034c1.449-0.003,2.668-0.98,3.027-2.305l0.005-0.022h1.177c0.362,1.349,1.583,2.327,3.033,2.327h0.001c0.581,0,1.119-0.16,1.583-0.43c0.182,0.52,0.238,1.063,0.14,1.605h0.001c-0.17,0.92-0.732,1.682-1.505,2.125l-0.014,0.008c-0.764,0.438-1.703,0.577-2.691,0.716c-0.658,0.084-1.22,0.186-1.772,0.314l0.118-0.023c-1.457,0.355-2.857,1.05-4.216,1.717c-1.738,0.854-3.377,1.66-4.896,1.66H5.927c-0.804,0-1.548-0.256-2.153-0.69C2.237,20.863,2.313,18.885,2.496,17.802L2.496,17.802z"/><path fill="#85394F" d="M12 10.075h-.166l-.077.007h-.028l-.084.015h-.02l-.098.02v.001l-.012.003c-.758.192-1.318.875-1.318 1.687v.005.003c.033.939.811 1.69 1.765 1.69.013 0 .026 0 .039 0V10.075L12 10.075zM3.659 14.765l-.077.16c-.449.91-.917 1.861-1.086 2.877-.182 1.083-.259 3.061 1.279 4.117.605.434 1.349.69 2.153.69h.023c1.519 0 3.158-.805 4.896-1.66.381-.187.765-.376 1.153-.559v-5.473c-.013 0-.027 0-.04 0-.162 0-.323-.007-.484-.034l-.023.035c-.409.614-.889 1.177-1.434 1.681-1.003.938-2.138 1.64-3.363 2.07L6.37 18.775l-.266-.139c-1.472-.751-2.228-2.272-1.962-3.745C3.974 14.863 3.812 14.821 3.659 14.765L3.659 14.765z"/><path fill="#99415B" d="M4.633,10.068c0.974,0,1.765,0.786,1.765,1.751c0,0.965-0.791,1.752-1.764,1.752c-0.973,0-1.766-0.785-1.766-1.75C2.868,10.855,3.66,10.068,4.633,10.068L4.633,10.068z"/><path fill="#85394F" d="M4.633 10.068c-.973 0-1.765.787-1.765 1.753 0 .964.793 1.749 1.765 1.75V10.068L4.633 10.068 4.633 10.068zM19.207 10.068c-.973 0-1.765.787-1.765 1.753 0 .964.793 1.749 1.765 1.75V10.068L19.207 10.068 19.207 10.068z"/><path fill="#99415B" d="M10.028,1.39h11.019l-2.53,7.4c-0.105,0.02-0.21,0.055-0.314,0.09l-2.661-5.385l-2.67,5.35c-0.105-0.034-0.218-0.055-0.33-0.076L10.028,1.39L10.028,1.39z"/><path fill="#85394F" d="M15.537,1.39h-5.509l2.514,7.379c0.112,0.021,0.225,0.042,0.33,0.076l2.666-5.342V1.39L15.537,1.39z"/></svg>