<svg width="130" height="30" viewBox="0 0 130 30" fill="none" xmlns="http://www.w3.org/2000/svg">
<path d="M18.9 22.99L15.42 25H2.55V4H15.42L18.9 6.01V22.99ZM6.75 7.6V21.4H14.7V7.6H6.75ZM36.7453 21.49V25H27.7753L24.2953 22.99V11.86L27.7753 9.85H33.2653L36.7453 11.86V19.03H28.4053V21.49H36.7453ZM28.4053 13.36V15.94H32.6353V13.36H28.4053ZM44.1682 10L47.6182 19.84H47.6782L51.1582 10H55.2682L49.7182 25H45.6082L40.0582 10H44.1682ZM57.3715 13.51V10H60.1315V5.11L63.6115 3.1H67.5415V6.61H64.2415V10H67.5415V13.51H64.2415V25H60.1315V13.51H57.3715ZM84.7969 23.14L81.3169 25.15H74.9269L71.4469 23.14V11.86L74.9269 9.85H81.3169L84.7969 11.86V23.14ZM75.5569 13.36V21.64H80.6869V13.36H75.5569ZM93.3687 25L89.8887 22.99V3.1H93.9987V21.49H96.9987V25H93.3687ZM104.413 10V25H100.303V10H104.413ZM100.153 7.21V3.1H104.563V7.21H100.153ZM122.866 23.14L119.386 25.15H112.996L109.516 23.14V11.86L112.996 9.85H119.386L122.866 11.86V23.14ZM113.626 13.36V21.64H118.756V13.36H113.626Z" fill="white"/>
</svg>
