<svg width="121" height="23" viewBox="0 0 121 23" fill="none" xmlns="http://www.w3.org/2000/svg">
<path d="M16.9 19.99L13.42 22H0.55V0.999999H13.42L16.9 3.01V19.99ZM4.75 4.6V18.4H12.7V4.6H4.75ZM34.7453 18.49V22H25.7753L22.2953 19.99V8.86L25.7753 6.85H31.2653L34.7453 8.86V16.03H26.4053V18.49H34.7453ZM26.4053 10.36V12.94H30.6353V10.36H26.4053ZM42.1682 7L45.6182 16.84H45.6782L49.1582 7H53.2682L47.7182 22H43.6082L38.0582 7H42.1682ZM55.3715 10.51V7H58.1315V2.11L61.6115 0.0999994H65.5415V3.61H62.2415V7H65.5415V10.51H62.2415V22H58.1315V10.51H55.3715ZM82.7969 20.14L79.3169 22.15H72.9269L69.4469 20.14V8.86L72.9269 6.85H79.3169L82.7969 8.86V20.14ZM73.5569 10.36V18.64H78.6869V10.36H73.5569ZM91.3687 22L87.8887 19.99V0.0999994H91.9987V18.49H94.9987V22H91.3687ZM102.413 7V22H98.3031V7H102.413ZM98.1531 4.21V0.0999994H102.563V4.21H98.1531ZM120.866 20.14L117.386 22.15H110.996L107.516 20.14V8.86L110.996 6.85H117.386L120.866 8.86V20.14ZM111.626 10.36V18.64H116.756V10.36H111.626Z" fill="#212121"/>
</svg>
