<svg width="50" height="50" viewBox="0 0 50 50" fill="none" xmlns="http://www.w3.org/2000/svg">
<path fill-rule="evenodd" clip-rule="evenodd" d="M0 0H50V50H0V0Z" fill="white"/>
<path fill-rule="evenodd" clip-rule="evenodd" d="M2.20605 33.2585H3.71055V27.2984L6.06015 32.4949C6.32629 33.1195 6.70838 33.3511 7.44895 33.3511C8.18979 33.3511 8.54853 33.1195 8.82634 32.4949L11.1643 27.2984V33.2585H12.6804V27.2984C12.6804 26.72 12.4488 26.4416 11.9627 26.2912C10.8169 25.9441 10.053 26.245 9.70595 27.0203L7.40304 32.1592L5.1808 27.0203C4.84514 26.2453 4.06955 25.9444 2.91239 26.2912C2.43795 26.4416 2.20631 26.7197 2.20631 27.2984V33.2585H2.20605ZM13.9302 28.4094H15.4464V31.6848C15.435 31.8697 15.5042 32.2866 16.326 32.2977C16.7542 32.3094 19.5897 32.2977 19.6128 32.2977V28.3861H21.1289V33.7446C21.1289 35.0639 19.4971 35.3532 18.7332 35.3648H13.9647V34.3581H18.7446C19.7168 34.2538 19.6011 33.768 19.6011 33.6059V33.2121H16.3952C14.9022 33.2004 13.9416 32.5408 13.9302 31.7885C13.9302 31.7193 13.9647 28.4322 13.9302 28.4094ZM46.4516 24.6132C45.5261 24.5901 44.8081 24.6827 44.2063 24.9374C44.033 25.0072 43.755 25.0072 43.7321 25.2269C43.8247 25.319 43.8359 25.4697 43.9171 25.5973C44.0559 25.8289 44.2992 26.141 44.5189 26.3031C44.7622 26.4886 45.0052 26.6735 45.2594 26.8357C45.7108 27.1132 46.22 27.2753 46.6597 27.5531C46.9144 27.7153 47.1689 27.9236 47.4236 28.0973C47.5507 28.19 47.6319 28.3407 47.794 28.3982V28.3632C47.7131 28.2595 47.6897 28.109 47.6091 27.9928C47.4931 27.8774 47.3774 27.7728 47.2615 27.6574C46.9261 27.2061 46.5092 26.8123 46.0576 26.4886C45.6872 26.2339 44.8771 25.8868 44.7267 25.4585L44.7038 25.4352C44.958 25.4118 45.2592 25.3192 45.5022 25.2497C45.896 25.1459 46.2545 25.1688 46.6594 25.0648C46.8449 25.0183 47.0298 24.9605 47.2153 24.9026V24.7986C47.007 24.5903 46.8565 24.3125 46.6368 24.1159C46.0467 23.6067 45.3982 23.1089 44.7269 22.6923C44.3682 22.4609 43.9051 22.3102 43.5236 22.1139C43.3843 22.0444 43.1532 22.0096 43.0722 21.8939C42.8634 21.6394 42.748 21.3038 42.5975 21.0026C42.2621 20.3661 41.9379 19.6603 41.6487 18.9889C41.4404 18.5376 41.3128 18.0862 41.0585 17.6697C39.8664 15.7021 38.5699 14.51 36.5793 13.3411C36.1513 13.0981 35.6421 12.9938 35.0979 12.8667C34.8087 12.855 34.5194 12.8319 34.23 12.8203C34.0445 12.7393 33.8595 12.5194 33.6974 12.4151C33.0378 11.9985 31.3364 11.0958 30.85 12.2877C30.5375 13.04 31.3131 13.7805 31.5792 14.1626C31.7763 14.4288 32.0305 14.7297 32.1698 15.0306C32.2505 15.2272 32.2736 15.4357 32.3548 15.644C32.5397 16.1532 32.7135 16.7203 32.9566 17.195C33.0837 17.438 33.2225 17.6927 33.3846 17.9127C33.4772 18.0401 33.6393 18.0979 33.6738 18.3062C33.5117 18.5379 33.5005 18.8849 33.4079 19.1744C32.9911 20.4823 33.1532 22.1025 33.7433 23.063C33.9288 23.3522 34.3685 23.9888 34.9589 23.7457C35.4797 23.5374 35.3638 22.8778 35.5142 22.2991C35.5492 22.1603 35.5259 22.0677 35.5952 21.9751V21.9982C35.7573 22.3222 35.9194 22.6347 36.0699 22.9587C36.4286 23.5258 37.0537 24.1161 37.5746 24.5097C37.8522 24.7179 38.0721 25.077 38.4192 25.2041V25.169H38.3964C38.3269 25.0653 38.2226 25.0188 38.13 24.9377C37.9217 24.7294 37.6903 24.4746 37.5282 24.2433C37.0423 23.5953 36.6143 22.8775 36.2322 22.137C36.0468 21.7782 35.8846 21.3847 35.7347 21.026C35.6647 20.8869 35.6647 20.6786 35.5492 20.6094C35.3755 20.8639 35.1212 21.0841 34.9934 21.3964C34.7734 21.8939 34.7506 22.5074 34.6696 23.1439C34.6229 23.1556 34.6463 23.1439 34.6229 23.167C34.253 23.0747 34.1254 22.6926 33.9867 22.3686C33.6396 21.5468 33.5815 20.2276 33.8824 19.2784C33.9633 19.0354 34.3109 18.2715 34.1721 18.0401C34.1021 17.8201 33.8712 17.693 33.7436 17.5192C33.5931 17.2992 33.4315 17.0217 33.3273 16.7786C33.0497 16.1304 32.9109 15.4129 32.6098 14.7647C32.4705 14.4638 32.2277 14.1512 32.0308 13.8737C31.8108 13.5611 31.5683 13.3411 31.3945 12.971C31.3367 12.8436 31.2557 12.6353 31.3483 12.4965C31.3712 12.4039 31.4179 12.3692 31.5099 12.3461C31.6604 12.2187 32.0889 12.3808 32.2394 12.4501C32.6674 12.6236 33.0261 12.7858 33.3849 13.0286C33.547 13.1442 33.7208 13.3642 33.9291 13.4223H34.1724C34.5428 13.5033 34.9591 13.4454 35.3062 13.5494C35.9197 13.7463 36.475 14.0355 36.9731 14.3481C38.489 15.3086 39.7393 16.6744 40.5839 18.3062C40.7226 18.5724 40.7805 18.8154 40.9081 19.0932C41.1514 19.6605 41.4523 20.239 41.6948 20.7946C41.9382 21.3385 42.1695 21.8942 42.5166 22.3455C42.6904 22.5886 43.3845 22.7157 43.6971 22.843C43.9288 22.9471 44.2872 23.0399 44.4961 23.167C44.8893 23.4101 45.2828 23.6879 45.6532 23.954C45.8382 24.0925 46.4171 24.3818 46.4516 24.6132Z" fill="#00678C"/>
<path fill-rule="evenodd" clip-rule="evenodd" d="M34.6466 14.5557C34.4499 14.5557 34.3111 14.5788 34.1724 14.6135V14.6366H34.1952C34.2878 14.8218 34.4499 14.9492 34.5656 15.111C34.6582 15.2962 34.7394 15.4814 34.832 15.6667L34.8549 15.6436C35.017 15.5279 35.0982 15.3427 35.0982 15.0649C35.0287 14.9839 35.0172 14.9027 34.9594 14.8218C34.8899 14.7061 34.7394 14.6483 34.6466 14.5557Z" fill="#00678C"/>
<path fill-rule="evenodd" clip-rule="evenodd" d="M22.2861 33.2584H26.6377C27.1469 33.2584 27.6333 33.1546 28.0266 32.9691C28.6862 32.6682 28.9988 32.2633 28.9988 31.731V30.62C28.9988 30.192 28.64 29.7866 27.9228 29.5091C27.5524 29.3703 27.0894 29.2891 26.638 29.2891H24.8095C24.1961 29.2891 23.9068 29.1036 23.8256 28.699C23.8142 28.6528 23.8142 28.6064 23.8142 28.5602V27.8772C23.8142 27.8422 23.8142 27.7963 23.8256 27.7501C23.9066 27.4375 24.0687 27.3563 24.6012 27.2987H29.0569V26.2915H24.8207C24.2072 26.2915 23.8832 26.3265 23.594 26.4191C22.7027 26.6967 22.3092 27.1366 22.3092 27.9117V28.7918C22.3092 29.4743 23.0731 30.0533 24.3693 30.192C24.5081 30.2037 24.6586 30.2037 24.809 30.2037H26.3716C26.4295 30.2037 26.487 30.2037 26.5332 30.2154C27.0079 30.2616 27.2162 30.3425 27.355 30.5158C27.4476 30.6084 27.4709 30.6896 27.4709 30.7938V31.6735C27.4709 31.7772 27.4014 31.9168 27.2626 32.0322C27.1233 32.1476 26.9034 32.2288 26.6141 32.2405C26.5563 32.2405 26.5221 32.2522 26.4637 32.2522H22.2861V33.2584ZM38.4192 31.5111C38.4192 32.5411 39.1948 33.1196 40.7457 33.2355C40.8962 33.2472 41.035 33.2584 41.1854 33.2584H45.1204V32.2516H41.1509C40.2708 32.2516 39.9354 32.0317 39.9354 31.4994V26.2913H38.419V31.5111H38.4192ZM29.959 31.557V27.9695C29.959 27.0552 30.607 26.4993 31.869 26.326C32.0078 26.3143 32.1465 26.3027 32.2739 26.3027H35.1438C35.2943 26.3027 35.4219 26.3143 35.5724 26.326C36.8338 26.4993 37.4701 27.0552 37.4701 27.9695V31.557C37.4701 32.2976 37.2042 32.6913 36.5788 32.9577L38.0602 34.2998H36.3129L35.1091 33.2122L33.8936 33.2817H32.2734C32.0075 33.2817 31.7063 33.2472 31.3938 33.1663C30.4337 32.8996 29.959 32.3904 29.959 31.557ZM31.5909 31.4766C31.5909 31.5227 31.6142 31.5687 31.6259 31.627C31.7069 32.0434 32.1001 32.275 32.7019 32.275H34.0679L32.8181 31.1407H34.5654L35.6647 32.1362C35.8735 32.0203 36.0006 31.8581 36.0468 31.6498C36.0585 31.6037 36.0585 31.5461 36.0585 31.4994V28.0619C36.0585 28.0157 36.0585 27.9698 36.0468 27.9231C35.9659 27.5299 35.5726 27.3102 34.9822 27.3102H32.7019C32.0306 27.3102 31.5909 27.5994 31.5909 28.0619V31.4766ZM45.8151 33.27H46.0351V32.4254H46.3243V32.2516H45.5142V32.4254H45.8151V33.27ZM47.4931 33.27H47.7014V32.2516H47.3894L47.1346 32.9463L46.8571 32.2516H46.5562V33.27H46.7528V32.495H46.7645L47.0537 33.27H47.2042L47.4934 32.495V33.27H47.4931Z" fill="#CE8B2C"/>
</svg>
