<svg id="Layer_1" data-name="Layer 1" xmlns="http://www.w3.org/2000/svg" viewBox="0 0 911.96252 978.14752"><defs><style>.cls-1{fill:#412846;}.cls-1,.cls-2,.cls-3{fill-rule:evenodd;}.cls-2{fill:#4b314f;}.cls-3{fill:#ba2bd2;}</style></defs><g id="badge"><polygon id="Path-2" class="cls-1" points="455.981 0 0 158.62 65.419 764.864 455.981 978.148 455.981 0"/><polygon class="cls-2" points="455.981 0 911.963 158.62 846.544 764.864 455.981 978.148 455.981 0"/><path id="Combined-Shape" class="cls-3" d="M727.74805,345.71231l-.08173-.25937q31.29766,34.83421,32.15173,82.72565c.56946,31.92761-10.14782,65.607-32.39868,100.93512,16.62982-12.92749,35.83466-40.83313,57.55139-83.39273q14.07258,129.3788-104.894,196.6373,38.03458-3.50748,100.77558-50.14-66.8357,160.911-245.78089,169.79737c-115.29242-.03089-189.98095-69.31507-189.92212-69.27106q-71.10054-55.33686-97.7287-139.28345c-28.3493-30.95972-28.632-34.27978-31.55625-46.651s1.84719-15.82718,10.15182-27.93252c5.53642-8.07026,6.84106-19.67936,3.99654-34.62q-10.58661-14.68149-12.19312-45.98743,0-15.12914,20.19388-31.92535c13.4626-11.19748,21.72208-19.80911,24.71435-25.73816q3.42339-4.84867,2.64533-42.04016-.209-36.52936,40.56442-39.748c40.77347-3.21866,63.76837-33.884,76.57865-47.82969,8.54016-9.29712,21.17892-13.81591,37.12045-13.90281,22.443-1.05194,42.86325,7.55112,60.45471,25.305,43.81458-2.26627,88.69544,9.5498,134.17084,35.14805q96.9363,57.58269,105.80609,124.50782-10.39023,87.93786-235.91034-4.612Q366.23228,410.83817,368.17438,522.20349q-.08061,102.19227,98.69308,148.46784c-32.058-31.4737-45.7106-57.92737-41.11288-79.83539Q525.77379,709.28586,653.4812,679.38708c-37.5163,1.30982-67.23273-10.7619-89.59778-36.39648q86.2761-2.09683,162.94507-80.37231c-29.51575,23.4873-60.40112,32.38116-93.10162,26.78668Q766.57821,484.95822,727.74805,345.71231ZM567,335a13,13,0,1,0-13-13A13,13,0,0,0,567,335Z" transform="translate(-44 -11)"/></g></svg>