<?xml version="1.0" standalone="no"?>
<!DOCTYPE svg PUBLIC "-//W3C//DTD SVG 20010904//EN"
 "http://www.w3.org/TR/2001/REC-SVG-20010904/DTD/svg10.dtd">
<svg version="1.0" xmlns="http://www.w3.org/2000/svg"
 width="500.000000pt" height="250.000000pt" viewBox="0 0 500.000000 250.000000"
 preserveAspectRatio="xMidYMid meet">

<g transform="translate(0.000000,250.000000) scale(0.100000,-0.100000)"
fill="#000000" stroke="none">
<path d="M1393 1622 c-5 -4 -17 -21 -26 -38 -35 -68 -148 -145 -202 -138 -17
2 4 -6 45 -19 54 -17 113 -48 211 -113 l136 -89 159 152 c126 121 154 153 135
153 -23 0 -428 87 -440 94 -4 3 -12 2 -18 -2z"/>
<path d="M2425 1315 l0 -205 38 0 37 0 0 69 0 69 85 3 c113 5 125 17 126 120
1 106 1 107 -21 129 -18 18 -33 20 -142 20 l-123 0 0 -205z m246 159 c7 -9 15
-44 17 -78 3 -51 0 -65 -18 -88 -21 -27 -25 -28 -111 -28 l-89 0 0 -76 c0 -46
-4 -73 -10 -69 -10 6 -14 338 -3 349 3 3 50 6 103 6 77 0 100 -3 111 -16z"/>
<path d="M2470 1385 l0 -85 90 0 c103 0 110 5 110 89 0 81 0 81 -106 81 l-94
0 0 -85z m159 51 c7 -8 11 -34 9 -58 l-3 -43 -67 -3 -68 -3 0 54 c0 29 3 57 7
60 13 13 110 7 122 -7z"/>
<path d="M2855 1508 c-12 -33 -125 -389 -125 -393 0 -3 18 -5 40 -5 39 0 40 1
51 45 l12 46 70 -3 70 -3 15 -42 c13 -41 16 -43 53 -43 21 0 39 3 39 8 0 4
-29 95 -63 202 l-63 195 -47 3 c-32 2 -49 -1 -52 -10z m133 -190 c29 -95 52
-177 52 -181 0 -22 -19 8 -30 48 l-13 45 -92 0 -92 0 -13 -45 c-12 -41 -30
-70 -30 -47 0 12 98 331 105 343 4 5 19 9 34 9 27 0 28 -3 79 -172z"/>
<path d="M2881 1447 c-5 -12 -19 -56 -31 -96 -12 -41 -24 -80 -27 -87 -4 -11
12 -14 82 -14 75 0 86 2 81 16 -3 9 -18 58 -34 110 -21 73 -31 94 -45 94 -10
0 -21 -10 -26 -23z m49 -93 c11 -38 20 -72 20 -76 0 -5 -21 -8 -46 -8 -45 0
-46 1 -39 28 16 68 37 133 41 129 3 -2 13 -35 24 -73z"/>
<path d="M3150 1315 l0 -205 38 0 37 0 -3 75 -4 75 40 0 39 0 31 -72 30 -73
46 -3 45 -3 -35 77 c-29 61 -33 78 -22 85 7 5 16 9 19 9 18 0 31 66 27 131 -6
103 -16 109 -169 109 l-119 0 0 -205z m244 153 c10 -14 16 -44 16 -78 0 -62
-19 -100 -51 -100 -24 0 -25 1 12 -82 17 -38 28 -72 25 -76 -4 -3 -23 31 -43
76 l-37 82 -58 0 -58 0 0 -74 c0 -41 -4 -78 -10 -81 -7 -4 -10 57 -10 174 l0
181 99 0 c92 0 101 -2 115 -22z"/>
<path d="M3195 1390 l0 -80 86 0 c53 0 90 5 97 12 12 12 17 104 6 132 -5 13
-23 16 -98 16 l-91 0 0 -80z m149 54 c12 -4 16 -20 16 -55 0 -56 -11 -63 -91
-57 l-44 3 -3 44 c-5 64 0 71 57 71 27 0 56 -3 65 -6z"/>
<path d="M3539 1501 c-23 -19 -24 -23 -24 -185 0 -159 1 -166 23 -188 20 -21
32 -23 122 -23 120 0 137 11 142 90 l2 50 -36 3 c-35 3 -37 2 -40 -30 l-3 -33
-65 0 -65 0 0 130 0 130 65 0 65 0 3 -32 c3 -31 6 -33 40 -33 l37 0 -3 55 c-5
76 -20 85 -143 85 -80 0 -101 -3 -120 -19z m200 -14 c29 -14 49 -63 32 -80 -8
-8 -11 -4 -11 15 0 44 -23 58 -100 58 -99 0 -100 -2 -100 -169 0 -107 3 -141
14 -150 9 -8 43 -11 93 -9 l78 3 12 35 c8 27 13 31 18 18 7 -17 -10 -57 -29
-70 -6 -4 -45 -8 -87 -8 -114 0 -113 0 -117 168 -4 149 2 176 41 192 33 13
129 11 156 -3z"/>
<path d="M3880 1315 l0 -205 135 0 135 0 0 35 0 35 -95 0 -95 0 0 50 0 50 80
0 80 0 0 35 0 34 -77 3 -78 3 0 45 0 45 93 3 92 3 0 34 0 35 -135 0 -135 0 0
-205z m240 165 c0 -6 -38 -10 -95 -10 l-95 0 0 -70 0 -70 74 0 c41 0 78 -4 81
-10 4 -6 -23 -10 -74 -10 l-81 0 0 -80 0 -80 95 0 c59 0 95 -4 95 -10 0 -7
-37 -10 -102 -8 l-103 3 -2 165 c-2 91 -1 171 2 178 6 15 205 18 205 2z"/>
<path d="M4230 1315 l0 -205 128 0 127 0 0 35 0 35 -87 0 -88 0 0 170 0 170
-40 0 -40 0 0 -205z m50 5 l0 -170 85 0 c52 0 85 -4 85 -10 0 -7 -33 -10 -92
-8 l-93 3 -3 178 c-2 116 1 177 8 177 6 0 10 -61 10 -170z"/>
<path d="M887 1480 c6 -7 56 -40 110 -74 l98 -61 5 -79 5 -79 35 -12 c88 -30
80 -37 80 58 l0 84 -138 81 c-76 45 -154 85 -173 88 -27 5 -32 4 -22 -6z"/>
<path d="M1895 1417 c-44 -39 -82 -78 -84 -86 -2 -12 0 -11 14 2 9 9 22 18 28
18 7 1 14 2 17 2 14 3 125 127 116 130 -6 2 -47 -28 -91 -66z m85 60 c0 -2
-17 -19 -37 -38 l-38 -34 34 38 c33 34 41 42 41 34z"/>
<path d="M1108 1453 c7 -3 16 -2 19 1 4 3 -2 6 -13 5 -11 0 -14 -3 -6 -6z"/>
<path d="M2018 1069 c3 -23 -1 -46 -8 -52 -9 -9 -10 -3 -5 26 5 23 3 37 -3 37
-10 0 -22 -89 -12 -95 3 -2 13 2 22 9 18 14 28 90 12 106 -6 6 -8 -4 -6 -31z"/>
<path d="M1925 1039 c-4 -6 -13 -8 -20 -5 -14 5 -10 -23 10 -61 12 -23 28 -22
19 2 -3 7 -1 16 5 20 13 8 15 55 2 55 -6 0 -13 -5 -16 -11z"/>
<path d="M1949 953 c-13 -15 -12 -15 9 -4 23 12 28 21 13 21 -5 0 -15 -7 -22
-17z"/>
<path d="M2008 956 c-10 -7 -18 -18 -18 -24 0 -6 -6 -13 -12 -15 -10 -4 -10
-8 1 -15 17 -12 41 -5 41 13 0 7 7 15 15 19 8 3 15 10 15 16 0 6 -4 9 -9 6 -5
-4 -11 -2 -13 3 -1 5 -11 4 -20 -3z"/>
<path d="M1230 827 l0 -135 126 -46 c69 -25 132 -46 140 -46 19 0 21 252 2
267 -7 6 -65 27 -128 48 -63 21 -121 40 -127 42 -10 4 -13 -26 -13 -130z m97
88 c32 -13 33 -16 33 -69 0 -58 -8 -67 -34 -40 -20 20 -20 40 -1 48 25 9 18
45 -11 56 -14 6 -32 10 -40 10 -19 0 -18 -34 1 -50 28 -23 14 -56 -19 -44 -12
5 -16 20 -16 61 0 55 0 55 27 48 15 -3 42 -13 60 -20z m73 -40 c-6 -7 -8 -20
-4 -29 8 -20 -3 -66 -16 -66 -6 0 -10 27 -10 59 0 54 2 59 20 54 15 -4 18 -9
10 -18z m65 -7 c23 -10 25 -17 25 -72 0 -47 -3 -57 -12 -48 -7 7 -13 34 -13
60 -1 39 -5 47 -20 47 -10 0 -20 6 -23 13 -5 15 10 15 43 0z m-25 -59 c0 -17
-4 -28 -10 -24 -5 3 -10 17 -10 31 0 13 5 24 10 24 6 0 10 -14 10 -31z m-144
-15 c13 -3 24 -10 24 -14 0 -4 8 -7 18 -6 14 1 18 -9 20 -51 2 -30 -1 -53 -7
-53 -25 0 -41 14 -41 36 0 17 4 22 15 18 20 -8 19 3 -5 33 -11 14 -20 22 -20
17 0 -5 -4 -4 -8 3 -6 9 -11 7 -20 -8 -10 -16 -10 -20 3 -25 16 -6 21 -39 7
-48 -17 -11 -31 12 -38 63 -6 49 -5 54 10 48 10 -4 29 -10 42 -13z m197 -90
c5 -30 3 -30 -23 -2 -11 12 -20 18 -20 14 0 -5 -11 -1 -25 8 -14 9 -25 12 -25
6 0 -5 -7 -10 -15 -10 -9 0 -15 9 -15 24 l0 25 59 -20 c47 -16 60 -25 64 -45z
m-58 -52 c20 -9 31 -10 33 -3 6 19 22 12 22 -9 0 -11 -3 -20 -7 -20 -16 0
-100 35 -102 43 -4 24 0 31 12 17 7 -8 25 -21 42 -28z"/>
<path d="M1896 925 c-11 -8 -16 -15 -10 -15 5 0 18 7 28 15 11 8 16 15 10 15
-5 0 -18 -7 -28 -15z"/>
<path d="M1910 895 c-20 -24 -8 -37 18 -19 12 8 20 20 17 25 -9 13 -21 11 -35
-6z"/>
<path d="M2010 880 c-14 -11 -29 -20 -33 -20 -5 0 -15 -7 -23 -15 -19 -18 -34
-20 -31 -2 2 6 -1 2 -7 -10 -5 -13 -18 -26 -29 -29 -10 -3 -16 -8 -13 -11 5
-5 176 95 176 103 0 9 -16 3 -40 -16z"/>
<path d="M846 811 c12 -12 685 -263 690 -258 3 2 -17 12 -43 22 -27 10 -53 21
-58 26 -12 9 -219 90 -243 94 -9 2 -19 4 -22 5 -3 1 -8 2 -12 1 -5 0 -8 4 -8
10 0 6 -7 9 -15 5 -8 -3 -15 -2 -15 2 0 4 -19 12 -42 18 -24 6 -88 27 -142 47
-55 20 -95 33 -90 28z"/>
</g>
</svg>
