<?xml version="1.0" standalone="no"?>
<!DOCTYPE svg PUBLIC "-//W3C//DTD SVG 20010904//EN"
 "http://www.w3.org/TR/2001/REC-SVG-20010904/DTD/svg10.dtd">
<svg version="1.0" xmlns="http://www.w3.org/2000/svg"
 width="310.000000pt" height="163.000000pt" viewBox="0 0 310.000000 163.000000"
 preserveAspectRatio="xMidYMid meet">

<g transform="translate(0.000000,163.000000) scale(0.100000,-0.100000)"
fill="#000000" stroke="none">
<path d="M2418 1017 c-27 -11 -38 -27 -18 -27 6 0 10 -53 10 -140 0 -87 -4
-140 -10 -140 -5 0 -10 -4 -10 -10 0 -5 23 -10 50 -10 28 0 50 5 50 10 0 6 -7
10 -15 10 -11 0 -15 11 -15 36 l0 37 41 -47 c33 -38 47 -46 75 -46 19 0 34 5
34 10 0 6 -8 10 -18 10 -10 0 -35 21 -56 46 -35 42 -37 46 -22 63 9 10 32 27
51 37 19 10 35 22 35 26 0 5 -21 8 -46 8 -39 0 -45 -2 -40 -18 4 -13 -3 -25
-24 -40 l-30 -23 0 111 c0 60 -3 110 -7 109 -5 -1 -20 -6 -35 -12z"/>
<path d="M300 993 c27 -10 30 -26 30 -150 0 -115 -1 -123 -22 -137 -21 -15
-20 -16 37 -15 51 0 56 2 38 11 -20 10 -23 19 -23 75 0 60 1 63 25 63 19 0 35
-16 75 -75 44 -65 55 -75 80 -75 l29 0 -47 48 c-26 27 -53 60 -61 75 -13 25
-12 28 12 51 37 34 37 87 1 115 -22 18 -40 21 -108 20 -44 0 -74 -3 -66 -6z
m133 -14 c29 -16 37 -28 37 -60 0 -33 -28 -58 -74 -66 l-36 -6 0 72 c0 70 1
71 26 71 14 0 35 -5 47 -11z"/>
<path d="M1520 991 c0 -5 9 -11 20 -14 19 -5 20 -14 20 -132 0 -118 -1 -127
-20 -132 -40 -11 -18 -23 40 -23 33 0 60 4 60 10 0 6 -7 10 -15 10 -12 0 -15
14 -15 65 l0 66 83 -3 82 -3 3 -39 c4 -52 -5 -86 -23 -86 -8 0 -15 -4 -15 -10
0 -6 27 -10 60 -10 58 0 80 12 40 23 -19 5 -20 14 -20 132 0 118 1 127 20 132
40 11 18 23 -40 23 -59 0 -80 -12 -39 -23 18 -5 20 -12 17 -59 l-3 -53 -82 -3
-83 -3 0 61 c0 47 3 60 15 60 8 0 15 5 15 10 0 6 -27 10 -60 10 -33 0 -60 -4
-60 -9z"/>
<path d="M1271 910 c-8 -14 -21 -30 -30 -37 -14 -11 -14 -12 2 -13 15 0 17
-10 17 -74 0 -83 15 -112 54 -100 30 9 46 26 21 24 -44 -5 -45 -2 -45 75 l0
75 30 0 c17 0 30 5 30 10 0 6 -13 10 -29 10 -25 0 -30 4 -33 28 l-3 27 -14
-25z"/>
<path d="M1973 893 c-30 -6 -70 -48 -76 -80 -22 -115 126 -180 190 -84 27 40
29 71 8 111 -21 41 -70 62 -122 53z m73 -57 c20 -41 13 -95 -16 -121 -50 -45
-107 45 -76 120 13 29 20 35 46 35 25 0 33 -6 46 -34z"/>
<path d="M2223 893 c-31 -6 -70 -48 -77 -84 -22 -112 128 -175 191 -80 27 40
29 71 8 111 -21 41 -70 62 -122 53z m74 -61 c18 -43 10 -92 -17 -117 -47 -42
-104 37 -80 110 21 63 72 67 97 7z"/>
<path d="M2683 885 c-27 -11 -33 -20 -33 -45 0 -25 8 -36 45 -62 45 -32 58
-61 30 -72 -21 -8 -43 3 -50 25 -4 10 -13 19 -21 19 -11 0 -13 -7 -8 -27 9
-35 5 -33 48 -40 51 -8 86 17 86 62 0 29 -5 37 -32 51 -47 23 -67 44 -61 60 8
22 51 17 58 -6 10 -30 33 -25 27 6 -3 15 -14 29 -29 35 -13 5 -25 9 -26 9 -1
-1 -17 -7 -34 -15z"/>
<path d="M635 870 c-10 -11 -20 -42 -23 -70 -5 -57 13 -95 53 -110 31 -12 82
5 96 32 11 20 10 20 -12 4 -51 -35 -102 -12 -115 52 l-6 32 66 0 c63 0 66 1
66 23 0 53 -87 79 -125 37z m83 -2 c25 -25 13 -38 -33 -38 -48 0 -55 9 -29 34
18 19 45 21 62 4z"/>
<path d="M848 872 c-16 -9 -28 -25 -28 -34 0 -25 13 -22 25 5 13 28 54 35 72
11 22 -31 15 -42 -44 -71 -47 -23 -59 -33 -61 -55 -5 -39 26 -53 74 -33 33 14
38 14 49 -1 10 -14 15 -15 35 -4 l24 13 -22 8 c-20 8 -22 15 -22 82 0 43 -5
78 -12 85 -17 17 -58 14 -90 -6z m82 -112 c0 -22 -7 -33 -27 -43 -37 -18 -63
-11 -63 17 0 15 10 27 33 39 47 23 57 21 57 -13z"/>
<path d="M1072 868 c-48 -52 -51 -117 -7 -158 30 -28 71 -30 108 -5 31 20 30
33 -1 16 -78 -42 -148 61 -91 133 23 30 54 33 81 9 20 -18 34 -12 25 12 -10
25 -89 20 -115 -7z"/>
</g>
</svg>
