<?xml version="1.0" standalone="no"?>
<!DOCTYPE svg PUBLIC "-//W3C//DTD SVG 20010904//EN"
 "http://www.w3.org/TR/2001/REC-SVG-20010904/DTD/svg10.dtd">
<svg version="1.0" xmlns="http://www.w3.org/2000/svg"
 width="600.000000pt" height="600.000000pt" viewBox="0 0 600.000000 600.000000"
 preserveAspectRatio="xMidYMid meet">

<g transform="translate(0.000000,600.000000) scale(0.100000,-0.100000)"
fill="#000000" stroke="none">
<path d="M1740 5409 c-126 -25 -226 -110 -294 -252 -79 -164 -101 -304 -93
-587 5 -204 31 -386 81 -588 16 -64 20 -95 12 -97 -6 -2 -85 -26 -176 -55
-700 -222 -1097 -597 -991 -938 68 -221 295 -429 651 -601 138 -66 335 -141
464 -177 55 -15 58 -17 52 -43 -3 -14 -17 -76 -31 -137 -14 -62 -32 -156 -41
-210 -21 -133 -30 -478 -15 -586 38 -269 132 -438 287 -515 70 -34 85 -38 177
-41 56 -3 132 1 172 8 267 47 599 242 932 547 l79 72 100 -91 c344 -315 670
-501 942 -538 185 -25 335 29 432 155 122 158 178 405 167 735 -6 181 -23 306
-66 505 -16 72 -27 133 -24 138 2 4 11 7 19 7 30 0 291 93 414 147 542 239
811 556 722 850 -84 274 -454 538 -1002 714 -91 29 -167 53 -168 55 -2 1 7 51
21 111 160 689 68 1238 -232 1385 -57 29 -76 33 -166 36 -122 5 -214 -12 -347
-63 -224 -86 -508 -279 -740 -503 l-77 -74 -113 102 c-433 391 -857 586 -1148
529z m270 -106 c241 -57 581 -268 852 -530 l68 -65 -97 -106 c-111 -123 -302
-360 -385 -477 l-56 -80 -164 -18 c-182 -21 -459 -65 -588 -96 -63 -15 -87
-17 -92 -8 -11 17 -46 175 -68 302 -78 459 -34 832 120 999 90 98 222 123 410
79z m2283 -7 c69 -33 119 -89 163 -181 117 -243 121 -635 12 -1113 -20 -85
-24 -93 -42 -89 -245 55 -692 127 -794 127 -23 0 -39 17 -108 113 -104 144
-259 336 -368 457 -47 52 -86 98 -86 102 0 9 170 163 273 246 226 184 484 321
678 362 24 5 83 8 130 6 70 -2 96 -7 142 -30z m-1130 -840 c100 -116 307 -383
307 -395 0 -3 -53 -3 -117 1 -65 3 -226 6 -358 6 -132 0 -293 -3 -358 -6 -64
-4 -117 -5 -117 -3 0 19 273 358 409 508 l65 73 34 -33 c19 -17 79 -85 135
-151z m87 -486 c146 -6 273 -13 283 -16 22 -7 166 -224 291 -438 83 -141 254
-460 269 -499 13 -35 -228 -483 -435 -810 l-103 -162 -70 -8 c-93 -12 -847
-14 -955 -4 l-85 8 -87 132 c-150 229 -286 463 -402 694 l-65 131 48 99 c157
319 478 847 523 858 19 5 145 11 483 23 22 1 159 -3 305 -8z m-1020 -168
c-104 -162 -247 -410 -328 -569 -31 -62 -60 -113 -63 -113 -21 0 -272 680
-257 695 23 23 568 119 700 124 l37 1 -89 -138z m1662 113 c164 -22 514 -88
524 -98 12 -12 -148 -451 -229 -628 l-33 -74 -89 165 c-100 186 -254 449 -327
558 -59 88 -65 102 -44 102 8 0 98 -11 198 -25z m-2344 -316 c34 -104 94 -265
133 -357 39 -92 78 -185 87 -208 l16 -40 -71 -165 c-82 -190 -157 -390 -202
-536 -18 -57 -33 -103 -35 -103 -18 0 -236 71 -326 107 -517 203 -836 508
-790 753 37 197 230 379 582 550 135 66 479 190 523 189 17 0 29 -28 83 -190z
m3162 133 c339 -112 580 -244 753 -411 229 -221 229 -410 3 -636 -145 -145
-353 -270 -626 -378 -108 -42 -311 -110 -315 -104 -1 1 -19 54 -40 117 -49
151 -137 372 -215 543 l-62 137 71 164 c81 187 131 317 191 499 l42 128 31 -7
c18 -4 93 -27 167 -52z m-467 -1042 c87 -203 191 -500 180 -511 -22 -22 -726
-139 -742 -123 -2 2 21 43 51 91 140 221 262 434 363 632 39 76 60 109 66 100
4 -8 41 -93 82 -189z m-2138 -290 c54 -91 125 -204 157 -252 32 -48 58 -90 58
-93 0 -21 -716 88 -742 113 -14 14 175 539 244 676 l20 39 82 -159 c46 -87
127 -233 181 -324z m2364 -357 c66 -245 102 -588 82 -794 -27 -287 -114 -473
-256 -547 -46 -25 -59 -27 -170 -27 -108 1 -129 4 -212 32 -183 64 -374 174
-568 330 -114 91 -265 230 -265 245 0 5 37 51 83 101 105 117 218 258 336 423
52 71 97 132 100 137 4 4 86 16 182 27 189 21 427 60 554 89 119 28 123 27
134 -16z m-2759 -2 c159 -33 379 -64 565 -82 66 -6 120 -11 121 -12 0 -1 52
-72 116 -157 133 -178 214 -277 334 -407 46 -50 84 -96 84 -101 0 -15 -163
-166 -264 -245 -203 -157 -385 -260 -575 -325 -97 -33 -116 -36 -221 -36 -99
-1 -122 2 -166 22 -183 83 -276 347 -261 742 8 214 82 630 111 630 6 0 76 -13
156 -29z m1761 -116 c-4 -5 -53 -71 -108 -145 -98 -132 -212 -270 -310 -379
l-49 -54 -104 117 c-107 120 -299 356 -350 430 l-28 41 478 0 c317 0 476 -3
471 -10z"/>
<path d="M2867 3485 c-125 -34 -251 -132 -309 -241 -85 -157 -77 -360 20 -510
93 -144 242 -224 417 -224 141 0 253 46 351 144 99 99 144 210 144 352 0 280
-219 496 -500 493 -41 0 -97 -7 -123 -14z m204 -85 c150 -28 275 -145 313
-295 21 -79 20 -140 -3 -214 -38 -121 -111 -204 -227 -258 -52 -25 -71 -28
-159 -28 -94 0 -105 2 -170 34 -257 127 -312 452 -111 649 100 99 222 137 357
112z"/>
</g>
</svg>
