<svg width="60" height="60" viewBox="0 0 60 60" fill="none" xmlns="http://www.w3.org/2000/svg">
<g filter="url(#filter0_dd)">
<rect x="5" y="5" width="50" height="50" rx="8" fill="white"/>
</g>
<g clip-path="url(#clip0)">
<path d="M45.142 32.0938C43.6776 32.1014 42.4048 32.4541 41.3391 32.9755C40.9481 32.2011 40.5571 31.5111 40.4881 31.0051C40.4114 30.4147 40.3194 30.0543 40.4114 29.349C40.5034 28.6436 40.9174 27.6392 40.9098 27.5626C40.9021 27.4859 40.8178 27.1255 39.9744 27.1179C39.131 27.1102 38.4026 27.2789 38.3183 27.5012C38.234 27.7236 38.073 28.2296 37.9656 28.7509C37.8199 29.5177 36.2789 32.2548 35.3972 33.6885C35.1135 33.1288 34.8681 32.6381 34.8145 32.2471C34.7378 31.6568 34.6458 31.2964 34.7378 30.591C34.8298 29.8857 35.2438 28.8813 35.2362 28.8046C35.2285 28.728 35.1441 28.3676 34.3008 28.3599C33.4574 28.3523 32.729 28.5209 32.6447 28.7433C32.5604 28.9656 32.4684 29.487 32.292 29.993C32.1157 30.499 30.0686 35.0686 29.5319 36.2493C29.2559 36.855 29.0182 37.338 28.8495 37.6677C28.8495 37.6677 28.8418 37.6907 28.8188 37.729C28.6732 38.0127 28.5888 38.1661 28.5888 38.1661C28.5888 38.1661 28.5888 38.1661 28.5888 38.1737C28.4738 38.3807 28.3512 38.5724 28.2898 38.5724C28.2438 38.5724 28.1595 38.0204 28.3052 37.269C28.6118 35.6819 29.3402 33.2132 29.3325 33.1288C29.3325 33.0828 29.4705 32.6535 28.8572 32.4311C28.2592 32.2088 28.0445 32.5768 27.9908 32.5768C27.9371 32.5768 27.8988 32.7071 27.8988 32.7071C27.8988 32.7071 28.5658 29.9317 26.6261 29.9317C25.4147 29.9317 23.7433 31.2581 22.9152 32.4541C22.3939 32.7378 21.2822 33.3435 20.0938 33.9952C19.6414 34.2482 19.1737 34.5012 18.7367 34.7389C18.706 34.7082 18.6754 34.6699 18.6447 34.6392C16.2986 32.1321 11.959 30.361 12.1431 26.9952C12.2121 25.7685 12.6337 22.5483 20.4771 18.6381C26.9328 15.4563 32.0697 16.338 32.959 18.2931C34.2318 21.0839 30.2066 26.2668 23.5363 27.0182C20.9908 27.3019 19.6567 26.3205 19.3194 25.9525C18.9667 25.5691 18.913 25.5461 18.7827 25.6228C18.568 25.7378 18.706 26.0828 18.7827 26.2822C18.982 26.8035 19.8024 27.7236 21.1902 28.1759C22.4169 28.5746 25.3994 28.797 29.0105 27.4016C33.0511 25.8375 36.2099 21.4903 35.2822 17.8484C34.3544 14.1529 28.2208 12.9339 22.4169 14.9963C18.9667 16.223 15.2252 18.1551 12.5341 20.6699C9.33692 23.66 8.83089 26.2592 9.0379 27.3479C9.78161 31.2121 15.1102 33.7269 17.2416 35.5899C17.1343 35.6513 17.0346 35.7049 16.9503 35.7509C15.8846 36.28 11.821 38.4037 10.809 40.6502C9.65893 43.1956 10.993 45.0204 11.8747 45.2657C14.6118 46.0248 17.4256 44.66 18.936 42.4059C20.4464 40.1518 20.2624 37.223 19.5647 35.8813C19.5571 35.866 19.5494 35.8506 19.5341 35.8353C19.8101 35.6743 20.0938 35.5056 20.3698 35.3446C20.9141 35.0226 21.4508 34.7236 21.9109 34.4782C21.6502 35.1913 21.4585 36.0423 21.3665 37.269C21.2515 38.7104 21.8418 40.5812 22.6162 41.3172C22.9612 41.6392 23.3676 41.6469 23.6283 41.6469C24.533 41.6469 24.9393 40.8955 25.3917 40.0062C25.9437 38.9174 26.4421 37.6524 26.4421 37.6524C26.4421 37.6524 25.821 41.0719 27.5078 41.0719C28.1211 41.0719 28.7422 40.2745 29.0182 39.8681C29.0182 39.8758 29.0182 39.8758 29.0182 39.8758C29.0182 39.8758 29.0335 39.8528 29.0642 39.7991C29.1255 39.6995 29.1639 39.6381 29.1639 39.6381C29.1639 39.6381 29.1639 39.6305 29.1639 39.6228C29.4092 39.1934 29.9612 38.2197 30.7816 36.602C31.8397 34.5166 32.8594 31.9098 32.8594 31.9098C32.8594 31.9098 32.9514 32.5461 33.2657 33.6042C33.4497 34.2252 33.8331 34.9076 34.1398 35.5669C33.8944 35.912 33.7411 36.1036 33.7411 36.1036C33.7411 36.1036 33.7411 36.1036 33.7487 36.1113C33.5494 36.372 33.3347 36.6557 33.0971 36.9317C32.2613 37.9284 31.2646 39.0708 31.1266 39.4005C30.9656 39.7915 31.004 40.0752 31.3106 40.3052C31.533 40.4738 31.9317 40.4968 32.338 40.4738C33.0894 40.4202 33.6184 40.2362 33.8791 40.1212C34.2854 39.9755 34.7608 39.7531 35.2055 39.4235C36.0259 38.8178 36.5242 37.9514 36.4782 36.809C36.4552 36.1803 36.2482 35.5516 35.9952 34.9612C36.0719 34.8539 36.1409 34.7466 36.2175 34.6392C37.5133 32.7455 38.5176 30.6677 38.5176 30.6677C38.5176 30.6677 38.6096 31.3041 38.924 32.3621C39.0773 32.8988 39.3917 33.4815 39.6677 34.0489C38.4486 35.0379 37.6973 36.188 37.4289 36.9393C36.9459 38.3347 37.3216 38.9634 38.0346 39.1091C38.3566 39.1781 38.8167 39.0248 39.154 38.8791C39.5834 38.7411 40.0894 38.5034 40.5724 38.1507C41.3928 37.545 42.1825 36.7017 42.1365 35.5593C42.1135 35.0379 41.9755 34.5242 41.7838 34.0259C42.8189 33.5965 44.1529 33.3588 45.855 33.5582C49.5045 33.9875 50.2252 36.2646 50.0872 37.223C49.9492 38.1814 49.1825 38.7028 48.9295 38.8638C48.6765 39.0248 48.5921 39.0784 48.6151 39.1934C48.6458 39.3621 48.7685 39.3545 48.9831 39.3238C49.2822 39.2701 50.8999 38.5494 50.9689 36.786C51.0839 34.5319 48.9371 32.0708 45.142 32.0938ZM16.9886 41.5856C15.7772 42.9043 14.0905 43.4026 13.3621 42.981C12.5801 42.5286 12.8868 40.5812 14.3742 39.1858C15.2789 38.3347 16.4443 37.545 17.2186 37.062C17.395 36.9547 17.6556 36.8013 17.97 36.6097C18.0237 36.579 18.0543 36.5637 18.0543 36.5637C18.1157 36.5253 18.177 36.487 18.2383 36.4486C18.7827 38.4421 18.2613 40.1978 16.9886 41.5856ZM25.8057 35.5899C25.384 36.6173 24.5023 39.2471 23.9656 39.1014C23.5056 38.9788 23.2219 36.9853 23.8736 35.0149C24.2033 34.0259 24.901 32.8451 25.3073 32.3851C25.9667 31.6491 26.6951 31.4037 26.8714 31.7028C27.0938 32.0938 26.0664 34.9459 25.8057 35.5899ZM33.0817 39.0708C32.9054 39.1628 32.7367 39.2241 32.66 39.1781C32.6064 39.1474 32.7367 39.0248 32.7367 39.0248C32.7367 39.0248 33.6491 38.0434 34.0094 37.5987C34.2164 37.338 34.4618 37.0313 34.7225 36.6863C34.7225 36.717 34.7225 36.7553 34.7225 36.786C34.7225 37.9591 33.5877 38.7488 33.0817 39.0708ZM38.694 37.7904C38.5636 37.6984 38.5866 37.3917 39.0237 36.4333C39.1923 36.0576 39.591 35.4289 40.2734 34.8232C40.3501 35.0686 40.4037 35.3063 40.3961 35.5286C40.3884 37.0083 39.3303 37.5604 38.694 37.7904Z" fill="#CD6799"/>
</g>
<defs>
<filter id="filter0_dd" x="0" y="0" width="60" height="60" filterUnits="userSpaceOnUse" color-interpolation-filters="sRGB">
<feFlood flood-opacity="0" result="BackgroundImageFix"/>
<feColorMatrix in="SourceAlpha" type="matrix" values="0 0 0 0 0 0 0 0 0 0 0 0 0 0 0 0 0 0 127 0"/>
<feOffset dx="-1" dy="-1"/>
<feGaussianBlur stdDeviation="2"/>
<feColorMatrix type="matrix" values="0 0 0 0 0 0 0 0 0 0 0 0 0 0 0 0 0 0 0.2 0"/>
<feBlend mode="normal" in2="BackgroundImageFix" result="effect1_dropShadow"/>
<feColorMatrix in="SourceAlpha" type="matrix" values="0 0 0 0 0 0 0 0 0 0 0 0 0 0 0 0 0 0 127 0"/>
<feOffset dx="1" dy="1"/>
<feGaussianBlur stdDeviation="2"/>
<feColorMatrix type="matrix" values="0 0 0 0 0 0 0 0 0 0 0 0 0 0 0 0 0 0 0.25 0"/>
<feBlend mode="normal" in2="effect1_dropShadow" result="effect2_dropShadow"/>
<feBlend mode="normal" in="SourceGraphic" in2="effect2_dropShadow" result="shape"/>
</filter>
<clipPath id="clip0">
<rect width="42" height="31.4808" fill="white" transform="translate(9 14)"/>
</clipPath>
</defs>
</svg>
