<svg xmlns="http://www.w3.org/2000/svg" enable-background="new 0 0 24 24" viewBox="0 0 24 24"><linearGradient id="a" x1="-1271.141" x2="-1270.141" y1="-2539.938" y2="-2539.938" gradientTransform="matrix(14.7692 0 0 -5.5385 18778.385 -14051.77)" gradientUnits="userSpaceOnUse"><stop offset="0" stop-color="#4f4f4f"/><stop offset="1"/></linearGradient><path fill="url(#a)" d="M18.536,13.846c-1.303,0.682-3.919,1.206-6.536,1.615v1.846c3.692-0.577,7.385-1.385,7.385-2.538C19.385,14.433,19.071,14.127,18.536,13.846L18.536,13.846z"/><linearGradient id="b" x1="-1271.141" x2="-1270.141" y1="-2539.938" y2="-2539.938" gradientTransform="matrix(14.7692 0 0 -5.5385 18778.385 -14059.154)" gradientUnits="userSpaceOnUse"><stop offset="0" stop-color="#4f4f4f"/><stop offset="1"/></linearGradient><path fill="url(#b)" d="M18.536,6.462C17.233,7.143,14.616,7.668,12,8.077v1.846c3.692-0.577,7.385-1.385,7.385-2.538C19.385,7.048,19.071,6.742,18.536,6.462L18.536,6.462z"/><linearGradient id="c" x1="-1271.141" x2="-1270.141" y1="-2506.313" y2="-2506.313" gradientTransform="matrix(14.7692 0 0 -9.2308 18778.385 -23123.77)" gradientUnits="userSpaceOnUse"><stop offset="0" stop-color="#c40000"/><stop offset="1" stop-color="red"/></linearGradient><path fill="url(#c)" d="M19.385,7.385L19.385,7.385c0,1.154-3.693,1.961-7.385,2.538v5.538c2.616-0.409,5.233-0.934,6.536-1.615c0.536-0.28,0.849-0.587,0.849-0.923V7.385L19.385,7.385z"/><linearGradient id="d" x1="-1271.141" x2="-1270.141" y1="-2506.313" y2="-2506.313" gradientTransform="matrix(14.7692 0 0 -9.2308 18778.385 -23131.154)" gradientUnits="userSpaceOnUse"><stop offset="0" stop-color="#c40000"/><stop offset="1" stop-color="red"/></linearGradient><path fill="url(#d)" d="M19.385,0c0,1.154-3.693,1.961-7.385,2.538v5.539c2.616-0.409,5.233-0.934,6.536-1.615c0.536-0.28,0.849-0.587,0.849-0.923V0L19.385,0z"/><linearGradient id="e" x1="-1271.141" x2="-1270.141" y1="-2506.313" y2="-2506.313" gradientTransform="matrix(14.7692 0 0 -9.2308 18778.385 -23116.385)" gradientUnits="userSpaceOnUse"><stop offset="0" stop-color="#c40000"/><stop offset="1" stop-color="red"/></linearGradient><path fill="url(#e)" d="M19.385,14.77L19.385,14.77c0,1.154-3.693,1.961-7.385,2.538v5.538c3.692-0.577,7.385-1.385,7.385-2.538V14.77L19.385,14.77z"/><linearGradient id="f" x1="-1271.141" x2="-1270.141" y1="-2540.042" y2="-2540.042" gradientTransform="matrix(14.7692 0 0 -5.5385 18778.385 -14051.77)" gradientUnits="userSpaceOnUse"><stop offset="0" stop-color="#454545"/><stop offset="1"/></linearGradient><path fill="url(#f)" d="M4.615,14.77L4.615,14.77v1.845c0,0.199,2.723,0.482,5.831,0.924c0.511-0.073,1.032-0.149,1.553-0.231v-1.846c-3.692,0.577-7.384,0.923-7.384,1.153V14.77L4.615,14.77z"/><linearGradient id="g" x1="-1271.141" x2="-1270.141" y1="-2540.042" y2="-2540.042" gradientTransform="matrix(14.7692 0 0 -5.5385 18778.385 -14059.154)" gradientUnits="userSpaceOnUse"><stop offset="0" stop-color="#454545"/><stop offset="1"/></linearGradient><path fill="url(#g)" d="M4.615,7.385L4.615,7.385v1.846c0,0.198,2.723,0.482,5.831,0.923c0.511-0.073,1.032-0.15,1.554-0.231V8.077C8.307,8.654,4.615,9,4.615,9.231V7.385L4.615,7.385z"/><linearGradient id="h" x1="-1271.141" x2="-1270.141" y1="-2506.512" y2="-2506.512" gradientTransform="matrix(14.7692 0 0 -9.2308 18778.385 -23123.77)" gradientUnits="userSpaceOnUse"><stop offset="0" stop-color="#ab0000"/><stop offset="1" stop-color="#de0000"/></linearGradient><path fill="url(#h)" d="M12,9.923c-0.521,0.081-1.043,0.158-1.554,0.231c-3.108,0.441-5.831,0.725-5.831,0.923v3.693v1.845c0-0.23,3.692-0.576,7.384-1.153V9.923L12,9.923z"/><linearGradient id="i" x1="-1271.141" x2="-1270.141" y1="-2506.512" y2="-2506.512" gradientTransform="matrix(14.7692 0 0 -9.2308 18778.385 -23131.154)" gradientUnits="userSpaceOnUse"><stop offset="0" stop-color="#ab0000"/><stop offset="1" stop-color="#de0000"/></linearGradient><path fill="url(#i)" d="M12,2.538C8.307,3.115,4.615,3.461,4.615,3.692v3.693v1.846C4.615,9,8.307,8.654,12,8.077V2.538L12,2.538z"/><path fill="#DEDEDE" d="M12,22.846C8.307,23.423,4.615,23.769,4.615,24H12V22.846L12,22.846z"/><linearGradient id="j" x1="-1271.141" x2="-1270.141" y1="-2506.512" y2="-2506.512" gradientTransform="matrix(14.7692 0 0 -9.2308 18778.385 -23116.385)" gradientUnits="userSpaceOnUse"><stop offset="0" stop-color="#ab0000"/><stop offset="1" stop-color="#de0000"/></linearGradient><path fill="url(#j)" d="M12,17.308c-0.521,0.081-1.042,0.158-1.553,0.231c-3.108,0.441-5.831,0.725-5.831,0.923V24c0-0.231,3.692-0.577,7.384-1.154V17.308L12,17.308z"/></svg>