<svg width="32" height="32" viewBox="0 0 32 32" fill="none" xmlns="http://www.w3.org/2000/svg">
<path d="M12.7999 23.9876C15.5286 23.9876 18.0092 23.0201 19.9441 21.3829L28.6263 30.0651C28.8247 30.2636 29.0728 30.3628 29.3456 30.3628C29.6185 30.3628 29.8666 30.2636 30.065 30.0651C30.4619 29.6682 30.4619 29.0232 30.065 28.6263L21.3828 19.9442C22.9953 18.0093 23.9875 15.5039 23.9875 12.8C23.9875 6.62325 18.9766 1.6124 12.7999 1.6124C6.64796 1.6124 1.6123 6.64805 1.6123 12.8C1.6123 18.9767 6.64796 23.9876 12.7999 23.9876ZM12.7999 3.6465C17.8604 3.6465 21.9534 7.76433 21.9534 12.8C21.9534 17.8605 17.8604 21.9535 12.7999 21.9535C7.73944 21.9535 3.64641 17.8357 3.64641 12.8C3.64641 7.76433 7.76424 3.6465 12.7999 3.6465Z" fill="white"/>
</svg>
