<svg width="25" height="25" viewBox="0 0 25 25" fill="none" xmlns="http://www.w3.org/2000/svg">
<path d="M12.5 23.8381C18.7619 23.8381 23.8381 18.7619 23.8381 12.5C23.8381 6.23812 18.7619 1.16187 12.5 1.16187C6.23812 1.16187 1.16187 6.23812 1.16187 12.5C1.16187 18.7619 6.23812 23.8381 12.5 23.8381Z" fill="#FDCA47" stroke="#231F20" stroke-miterlimit="10"/>
<path d="M18.1891 14.4231C18.1891 14.4231 17.1875 18.3894 12.7003 18.3894H12.5C8.01282 18.3894 7.01122 14.4231 7.01122 14.4231" stroke="#231F20" stroke-miterlimit="10" stroke-linecap="round"/>
<path d="M8 10C8.55228 10 9 9.55228 9 9C9 8.44772 8.55228 8 8 8C7.44772 8 7 8.44772 7 9C7 9.55228 7.44772 10 8 10Z" fill="#20201E"/>
<path d="M17 10C17.5523 10 18 9.55228 18 9C18 8.44772 17.5523 8 17 8C16.4477 8 16 8.44772 16 9C16 9.55228 16.4477 10 17 10Z" fill="#20201E"/>
</svg>
