<?xml version="1.0" encoding="UTF-8"?>
<svg width="512px" height="512px" viewBox="0 0 512 512" version="1.1" xmlns="http://www.w3.org/2000/svg" xmlns:xlink="http://www.w3.org/1999/xlink">
    <!-- Generator: Sketch 53.2 (72643) - https://sketchapp.com -->
    <title>Slice</title>
    <desc>Created with Sketch.</desc>
    <g id="Page-1" stroke="none" stroke-width="1" fill="none" fill-rule="evenodd">
        <g id="outer" transform="translate(20.000000, 84.000000)" fill-rule="nonzero">
            <path d="M52.3451327,125.921478 C52.3451327,138.897678 50.6003124,148.629683 47.1106195,155.117783 C43.6209265,161.605883 37.1785131,167.365641 27.7831858,172.397229 C36.9100751,177.163996 43.2853801,183.056162 46.909292,190.073903 C50.533204,197.091644 52.3451327,206.823648 52.3451327,219.270208 L52.3451327,283.224018 C52.3451327,297.789141 54.8952547,307.388737 59.9955752,312.023095 C65.0958957,316.657452 75.4306006,318.974596 91,318.974596 L91,344 L79.3230088,344 C58.9217269,344 44.4262966,339.564325 35.8362832,330.692841 C27.2462697,321.821357 22.9513274,306.793024 22.9513274,285.60739 L22.9513274,220.064665 C22.9513274,208.677387 21.2065071,200.203261 17.7168142,194.642032 C14.2271212,189.080804 8.32157553,185.240965 0,183.122402 L0,159.685912 C15.3009615,155.448786 22.9513274,143.664454 22.9513274,124.332564 L22.9513274,54.4203233 C22.9513274,35.088433 27.4475952,21.1855697 36.4402655,12.7113164 C45.4329358,4.23706309 59.8612576,0 79.7256637,0 L91,0 L91,25.0254042 C75.4306006,25.2902246 65.0958957,27.6735726 59.9955752,32.1755196 C54.8952547,36.6774667 52.3451327,45.813634 52.3451327,59.5842956 L52.3451327,125.921478 Z" id="{" fill-opacity="0.5" fill="#35495E"></path>
            <g id="vuex-logo" transform="translate(107.000000, 28.000000)">
                <g id="vue-logo">
                    <g id="Group" transform="translate(129.000000, 112.500000) scale(-1, 1) rotate(-180.000000) translate(-129.000000, -112.500000) translate(0.000000, -0.000000)">
                        <g transform="translate(0.078199, 0.013109)" fill="#41B883" id="Path">
                            <polygon points="157.701875 223.10028 128.156885 171.629694 98.6118946 223.10028 0.222867939 223.10028 128.156885 0.22362155 256.090901 223.10028"></polygon>
                        </g>
                        <g transform="translate(51.436536, 89.153285)" fill="#34495E" id="Path">
                            <polygon points="106.343538 133.960104 76.7985482 82.4895173 47.2535581 133.960104 0.0381381718 133.960104 76.7985482 0.236730399 153.558958 133.960104"></polygon>
                        </g>
                    </g>
                </g>
                <path d="M75.55,258.5 L83,258.5 L89.1,274.1 L89.45,274.1 L95.6,258.5 L103,258.5 L92.45,283 L86,283 L75.55,258.5 Z M122.95,279.8 L122.55,279.8 C121.783329,281.03334 120.750006,282.00833 119.45,282.725 C118.149993,283.44167 116.666675,283.8 115,283.8 C111.899985,283.8 109.591674,282.850009 108.075,280.95 C106.558326,279.04999 105.8,276.516683 105.8,273.35 L105.8,258.5 L112.35,258.5 L112.35,272.55 C112.35,274.316675 112.741663,275.624996 113.525,276.475 C114.308337,277.325004 115.449992,277.75 116.95,277.75 C117.850004,277.75 118.641663,277.558335 119.325,277.175 C120.008337,276.791665 120.591664,276.275003 121.075,275.625 C121.558336,274.974997 121.924999,274.208338 122.175,273.325 C122.425001,272.441662 122.55,271.500005 122.55,270.5 L122.55,258.5 L129.1,258.5 L129.1,283 L122.95,283 L122.95,279.8 Z M157.65,277.1 C156.516661,279.10001 154.991676,280.71666 153.075,281.95 C151.158324,283.183339 148.816681,283.8 146.05,283.8 C144.183324,283.8 142.458341,283.475003 140.875,282.825 C139.291659,282.174997 137.916673,281.266673 136.75,280.1 C135.583327,278.933328 134.675003,277.558341 134.025,275.975 C133.374997,274.391659 133.05,272.65001 133.05,270.75 C133.05,268.983324 133.366664,267.308341 134,265.725 C134.633336,264.141659 135.516661,262.758339 136.65,261.575 C137.783339,260.391661 139.124992,259.450003 140.675,258.75 C142.225008,258.049997 143.933324,257.7 145.8,257.7 C147.766677,257.7 149.516659,258.024997 151.05,258.675 C152.583341,259.325003 153.866661,260.224994 154.9,261.375 C155.933338,262.525006 156.716664,263.883326 157.25,265.45 C157.783336,267.016675 158.05,268.716657 158.05,270.55 L158.05,271.15 C158.016666,271.350001 158,271.533333 158,271.7 C157.966667,271.866668 157.95,272.049999 157.95,272.25 L139.5,272.25 C139.633334,273.250005 139.908331,274.10833 140.325,274.825 C140.741669,275.54167 141.25833,276.141664 141.875,276.625 C142.49167,277.108336 143.166663,277.458332 143.9,277.675 C144.633337,277.891668 145.38333,278 146.15,278 C147.650008,278 148.891662,277.658337 149.875,276.975 C150.858338,276.291663 151.63333,275.433338 152.2,274.4 L157.65,277.1 Z M151.7,267.6 C151.666667,267.166665 151.525001,266.683336 151.275,266.15 C151.024999,265.616664 150.658336,265.116669 150.175,264.65 C149.691664,264.183331 149.09167,263.800002 148.375,263.5 C147.65833,263.199998 146.800005,263.05 145.8,263.05 C144.399993,263.05 143.166672,263.449996 142.1,264.25 C141.033328,265.050004 140.283335,266.166659 139.85,267.6 L151.7,267.6 Z M167.85,270.55 L159.45,258.5 L167.2,258.5 L171.65,265.3 L172,265.3 L176.2,258.5 L184.2,258.5 L175.6,270.55 L184.2,283 L176.5,283 L171.9,276 L171.55,276 L167.1,283 L159.35,283 L167.85,270.55 Z" id="vuex" fill="#34495E"></path>
            </g>
            <path d="M434.345133,125.921478 C434.345133,138.897678 432.600312,148.629683 429.110619,155.117783 C425.620927,161.605883 419.178513,167.365641 409.783186,172.397229 C418.910075,177.163996 425.28538,183.056162 428.909292,190.073903 C432.533204,197.091644 434.345133,206.823648 434.345133,219.270208 L434.345133,283.224018 C434.345133,297.789141 436.895255,307.388737 441.995575,312.023095 C447.095896,316.657452 457.430601,318.974596 473,318.974596 L473,344 L461.323009,344 C440.921727,344 426.426297,339.564325 417.836283,330.692841 C409.24627,321.821357 404.951327,306.793024 404.951327,285.60739 L404.951327,220.064665 C404.951327,208.677387 403.206507,200.203261 399.716814,194.642032 C396.227121,189.080804 390.321576,185.240965 382,183.122402 L382,159.685912 C397.300961,155.448786 404.951327,143.664454 404.951327,124.332564 L404.951327,54.4203233 C404.951327,35.088433 409.447595,21.1855697 418.440265,12.7113164 C427.432936,4.23706309 441.861258,0 461.725664,0 L473,0 L473,25.0254042 C457.430601,25.2902246 447.095896,27.6735726 441.995575,32.1755196 C436.895255,36.6774667 434.345133,45.813634 434.345133,59.5842956 L434.345133,125.921478 Z" id="}" fill-opacity="0.5" fill="#35495E" transform="translate(427.500000, 172.000000) scale(-1, 1) translate(-427.500000, -172.000000) "></path>
        </g>
    </g>
</svg>