<svg width="20" height="20" viewBox="0 0 20 20" fill="none" xmlns="http://www.w3.org/2000/svg">
<path d="M9.84256 3.52155C5.96527 3.5164 2.80982 6.65122 2.80982 10.5234C2.80466 14.3955 5.94465 17.5458 9.81678 17.5509C13.6941 17.5561 16.8341 14.4161 16.8341 10.5388C16.8341 6.66669 13.7044 3.52155 9.84256 3.52155ZM11.6007 4.22792C11.6007 4.19183 11.6007 4.14542 11.6575 4.16605C11.6884 4.17636 11.7348 4.19183 11.7142 4.23823C11.6987 4.27432 11.6987 4.32588 11.642 4.33619C11.5904 4.31557 11.6007 4.26917 11.6007 4.22792ZM11.4151 4.14027C11.4203 4.15574 11.3894 4.21245 11.3687 4.21245C11.2862 4.21245 11.245 4.16089 11.2192 4.07324C11.3017 4.0784 11.379 4.05777 11.4151 4.14027ZM8.38342 16.9529C8.3628 17.0199 8.30093 16.9735 8.25452 16.9632C5.68685 16.3702 3.63478 14.1222 3.27386 11.5133C3.17589 10.8224 3.18621 10.1418 3.28417 9.45607C3.30995 9.29108 3.40791 9.14671 3.3976 8.96625C3.39245 8.89407 3.44916 8.79095 3.56259 8.77033C3.66056 8.7497 3.72758 8.76002 3.74821 8.8786C3.76367 8.9611 3.79461 9.04359 3.82039 9.12609C3.82555 9.15187 3.8307 9.19312 3.84101 9.19312C4.02147 9.22921 3.94929 9.45607 4.0885 9.51794C4.10397 9.5231 4.11944 9.54372 4.11428 9.55919C4.10913 9.92526 4.3463 10.2604 4.22256 10.6419C4.16584 10.8224 4.25349 11.008 4.28958 11.1885C4.31536 11.3071 4.43911 11.3689 4.5216 11.4463C4.60925 11.5288 4.6505 11.6113 4.66081 11.735C4.68144 12.0598 4.94439 12.2609 5.0836 12.5239C5.08876 12.5342 5.13001 12.5445 5.15063 12.5342C5.20219 12.5187 5.18157 12.4723 5.17641 12.4414C5.15579 12.3383 5.07329 12.2764 5.00626 12.199C4.91346 12.0908 4.87221 11.9722 4.87736 11.7763C5.05267 12.0598 5.2125 12.2919 5.39812 12.5084C5.41874 12.529 5.41874 12.5651 5.4239 12.5961C5.44452 12.6786 5.39296 12.7714 5.48061 12.8384C5.66623 12.9828 5.84153 13.1993 6.06324 13.2199C6.33135 13.2406 6.50665 13.4313 6.74382 13.488C6.83148 13.5087 6.88819 13.5963 6.93975 13.6788C7.04803 13.8593 7.20271 13.9727 7.42441 13.9675C7.543 13.9675 7.62034 14.0346 7.66159 14.1428C7.69768 14.2511 7.63581 14.3181 7.55847 14.38C7.47082 14.4522 7.37801 14.5244 7.47082 14.6533C7.47597 14.6584 7.47597 14.6688 7.47597 14.6688C7.33161 14.9111 7.56362 14.9987 7.6719 15.1328C7.70284 15.1689 7.75439 15.205 7.75955 15.2462C7.80595 15.4782 7.9761 15.5711 8.16687 15.6535C8.34733 15.736 8.4092 15.9887 8.33702 16.2413C8.29577 16.3754 8.36796 16.5301 8.26484 16.6641C8.2339 16.7002 8.30093 16.7466 8.34218 16.7724C8.42983 16.8343 8.40405 16.9013 8.38342 16.9529ZM15.7461 7.68757C15.6997 7.71851 15.6843 7.67211 15.6636 7.64117C15.5863 7.50712 15.5141 7.3679 15.4316 7.239C15.3955 7.18229 15.3904 7.08948 15.2615 7.12557C15.1893 7.1462 15.1584 7.00699 15.0965 6.94511C15.0604 6.90902 15.0552 6.81622 14.9624 6.85231C14.9006 6.87809 14.8284 6.8884 14.8439 6.98636C14.849 7.0173 14.8387 7.05339 14.8026 7.05855C14.6325 7.10495 14.6582 7.21838 14.6892 7.34728C14.751 7.60508 14.6789 7.82679 14.4417 7.966C14.2922 8.05365 14.2664 8.15161 14.3231 8.29598C14.3592 8.38363 14.3695 8.47128 14.3283 8.56409C14.2922 8.66205 14.3283 8.73424 14.452 8.71361C14.55 8.69814 14.6325 8.58987 14.751 8.70846C14.8748 8.82704 14.9006 8.95079 14.8645 9.11062C14.7614 9.09 14.7768 8.98688 14.7304 8.93016C14.6892 8.8786 14.6582 8.81158 14.5706 8.84767C14.4829 8.88376 14.5242 8.94563 14.5345 9.0075C14.55 9.07453 14.5603 9.14156 14.5809 9.20859C14.6015 9.28077 14.6221 9.34264 14.5036 9.33233C14.4417 9.32717 14.4314 9.38904 14.4056 9.43029C14.3437 9.53857 14.287 9.64684 14.2251 9.75512C14.2097 9.78605 14.1633 9.84277 14.1633 9.83761C14.0189 9.74996 13.9622 9.95104 13.8384 9.93042C13.7972 9.92526 13.7663 9.94073 13.7559 9.98714C13.7456 10.0387 13.7766 10.0593 13.8178 10.0851C13.8848 10.1212 13.9673 10.1367 13.9983 10.2295C14.0859 10.513 14.0241 10.5852 13.7302 10.5337C13.4517 10.4821 13.426 10.5027 13.4672 10.7812C13.4827 10.8946 13.4363 11.0029 13.4156 11.1111C13.4002 11.2039 13.4053 11.2813 13.5239 11.2761C13.6734 11.2658 13.6528 11.3947 13.6631 11.4721C13.6786 11.5597 13.6477 11.6422 13.5239 11.6474C13.3796 11.6525 13.3332 11.7866 13.3589 11.8639C13.426 12.0753 13.3022 12.1578 13.163 12.2248C12.9722 12.3176 12.8588 12.4568 12.7918 12.6579C12.7454 12.792 12.7247 12.9003 12.8124 13.024C12.8691 13.1013 12.8794 13.1735 12.7608 13.2302C12.6526 13.2818 12.6629 13.5293 12.766 13.6066C12.8536 13.6685 12.9516 13.7149 12.9361 13.8593C12.9258 13.9521 13.2455 14.0913 13.3435 14.05C13.4363 14.0088 13.5136 13.9469 13.6374 14.0036C13.7353 14.0449 13.7972 13.916 13.8797 13.8644C13.9519 13.818 14.0137 13.751 14.0911 13.8541C14.1426 13.9211 14.2045 13.8747 14.2612 13.8541C14.3179 13.8386 14.3592 13.849 14.3901 13.8954C14.4262 13.9469 14.3695 13.9727 14.3489 14.0036C14.3179 14.0449 14.2767 14.0758 14.2561 14.1171C14.22 14.1892 14.189 14.2924 14.287 14.3233C14.4881 14.3852 14.4004 14.5141 14.3695 14.6224C14.3437 14.71 14.287 14.7925 14.2303 14.8647C14.0962 15.0297 14.055 15.2256 14.0911 15.4215C14.1169 15.5607 14.0498 15.6175 13.957 15.6896C12.4515 16.8807 10.7397 17.3189 8.81137 17.0817C8.94542 16.8858 9.10526 16.7775 9.31665 16.7621C9.4043 16.7569 9.47133 16.7466 9.51258 16.6641C9.54352 16.5971 9.58992 16.5507 9.67242 16.5971C9.69819 16.6126 9.74975 16.6177 9.75491 16.5919C9.80131 16.4424 9.99724 16.4321 10.0436 16.2568C10.0746 16.133 10.2189 16.0351 10.3788 16.0351C10.5696 16.0299 10.8067 15.8237 10.8016 15.6278C10.7964 15.4937 10.8531 15.4215 10.9511 15.3545C10.9975 15.3236 11.0439 15.2875 11.0852 15.2514C11.2192 15.1276 11.1883 14.9523 11.0233 14.8853C10.8738 14.8286 10.7345 14.7409 10.5592 14.7925C10.4974 14.8131 10.451 14.7667 10.4097 14.7306C10.3272 14.6636 10.2396 14.6275 10.1365 14.6378C10.0127 14.6481 9.94568 14.6069 9.93021 14.4677C9.90959 14.2872 9.73944 14.1635 9.54867 14.1841C9.43008 14.1996 9.34759 14.1635 9.27025 14.081C9.19807 14.0036 9.06401 13.9779 9.01245 13.9108C8.85777 13.7252 8.68247 13.8129 8.50717 13.8077C8.37311 13.8077 8.29577 13.6891 8.19265 13.6272C8.08953 13.5602 8.00704 13.5138 7.97095 13.6891C7.94001 13.8232 7.7183 13.9211 7.59972 13.8541C7.52753 13.8129 7.4605 13.8077 7.38832 13.8077C7.22333 13.8129 7.12021 13.7304 7.14599 13.5602C7.17177 13.3695 7.05318 13.2818 6.91397 13.2663C6.7696 13.2457 6.77476 13.1838 6.78507 13.0807C6.79023 13.0292 6.78507 12.9776 6.79538 12.9312C6.81601 12.8178 6.74382 12.7662 6.66133 12.7404C6.56337 12.7095 6.5479 12.8075 6.51181 12.8693C6.47571 12.926 6.52212 13.0292 6.40869 13.0343C6.29526 13.0446 6.19729 13.0085 6.11995 12.9312C5.93949 12.7404 5.94981 12.297 6.11995 12.1062C6.22823 11.9877 6.31588 11.998 6.40353 12.1166C6.4654 12.2042 6.50665 12.2248 6.58399 12.1269C6.68195 11.9928 6.92944 12.0186 7.01194 12.1578C7.06349 12.2455 7.12537 12.3228 7.17693 12.4053C7.22333 12.4775 7.29551 12.4981 7.35223 12.462C7.40895 12.4208 7.40379 12.3434 7.34192 12.2815C7.31614 12.2558 7.28005 12.23 7.26973 12.199C7.19239 11.9619 7.08927 11.8175 7.42957 11.6783C7.5894 11.6164 7.6719 11.5081 7.70799 11.3432C7.75439 11.1266 7.79049 10.8997 8.07407 10.8482C8.14625 10.8379 8.12562 10.7605 8.13078 10.709C8.1514 10.5594 8.36795 10.3635 8.50717 10.379C8.59997 10.3841 8.54841 10.446 8.53295 10.4873C8.51748 10.5337 8.51748 10.5749 8.56388 10.5955C8.61029 10.6162 8.64122 10.5801 8.65153 10.5543C8.70825 10.4202 8.86808 10.4821 8.95058 10.3945C8.99698 10.3481 9.07948 10.3171 9.04854 10.2346C9.02276 10.1624 8.95058 10.214 8.89902 10.1985C8.76497 10.1624 8.63091 10.1315 8.60513 9.96136C8.59997 9.92011 8.59997 9.86855 8.5381 9.86855C8.4917 9.86855 8.46076 9.89948 8.42983 9.93558C8.32155 10.0696 8.22874 10.116 8.0586 10.116C8.19265 10.0284 8.29062 9.93558 8.35764 9.80668C8.40405 9.71903 8.61544 9.73449 8.67731 9.82215C8.72372 9.88917 8.77528 9.92011 8.84746 9.89433C8.95058 9.85824 8.88355 9.80152 8.86293 9.74996C8.84746 9.70356 8.88355 9.66231 8.91449 9.68293C9.04854 9.77574 9.14651 9.50763 9.26509 9.64684C9.31665 9.70356 9.23931 9.76027 9.20322 9.80668C9.15166 9.8737 9.1001 9.94073 9.13619 10.0232C9.17229 10.1006 9.24963 10.049 9.30119 10.049C9.36821 10.0439 9.4043 10.0903 9.43524 10.1315C9.49711 10.2088 9.57445 10.1985 9.65695 10.1985C9.73429 10.2037 9.73429 10.1367 9.75491 10.0851C9.61054 10.0387 9.70335 9.78605 9.49711 9.78605C9.43008 9.78605 9.40946 9.74996 9.41977 9.68809C9.43524 9.61075 9.43524 9.52825 9.46618 9.45092C9.51258 9.33748 9.50742 9.24983 9.37852 9.19827C9.32696 9.17765 9.30634 9.1364 9.30119 9.07969C9.30119 9.03328 9.28572 9.00235 9.229 8.99203C8.9712 8.94047 8.94542 8.90954 8.95574 8.66721C8.95574 8.64143 8.93511 8.61049 8.91449 8.58987C8.82168 8.48675 8.75465 8.36816 8.7134 8.23411C8.69794 8.1877 8.68762 8.13099 8.6206 8.1413C8.54326 8.15161 8.56388 8.20833 8.56388 8.25473C8.57419 8.34238 8.55873 8.41457 8.47107 8.45581C8.37827 8.49706 8.30093 8.41457 8.20812 8.42488C8.17718 8.42488 8.17718 8.37332 8.1875 8.33207C8.24937 8.06912 8.08438 7.85772 7.81111 7.84741C7.8008 7.84741 7.78533 7.84741 7.77502 7.84741C7.5894 7.80616 7.52238 7.8835 7.53784 8.06912C7.543 8.18255 7.56362 8.30113 7.4605 8.3991C7.40894 8.45066 7.43472 8.51253 7.49144 8.55378C7.62034 8.64658 7.64612 8.85282 7.51722 8.93532C7.37801 9.03328 7.36254 9.16218 7.39863 9.29108C7.42957 9.39936 7.40379 9.50248 7.31614 9.51279C7.2388 9.51794 7.12537 9.45092 7.13568 9.31686C7.14083 9.27561 7.13052 9.22921 7.13568 9.18796C7.1563 9.01781 7.08927 8.95594 6.92428 9.00235C6.86241 9.01781 6.82632 8.99203 6.79538 8.95594C6.7232 8.87345 6.62524 8.84251 6.52727 8.80126C6.36744 8.72908 6.30041 8.55378 6.20245 8.41457C6.15604 8.34754 6.20245 8.24957 6.25916 8.15677C6.39322 7.94022 6.55821 7.76491 6.74382 7.59477C6.80054 7.54321 6.81085 7.44009 6.84694 7.34728C6.91913 7.40915 6.90366 7.48134 6.86757 7.54321C6.82632 7.61023 6.83663 7.67726 6.89335 7.70304C6.95006 7.72882 7.04287 7.77523 7.08412 7.67726C7.1099 7.62055 7.13568 7.63601 7.16146 7.66179C7.21302 7.70304 7.27489 7.70304 7.31098 7.65664C7.34707 7.59992 7.31098 7.53805 7.27489 7.48649C7.21817 7.41946 7.07896 7.404 7.16146 7.25963C7.20271 7.17713 7.22333 7.09464 7.30583 7.03277C7.39863 6.96058 7.35739 6.61513 7.25427 6.57904C7.16146 6.54295 7.05834 6.50686 7.04287 6.67185C7.03772 6.76981 6.92428 6.82137 6.92428 6.92965C6.92428 6.95543 6.87272 6.96058 6.8521 6.92449C6.84179 6.90387 6.84179 6.87809 6.83663 6.85231C6.81601 6.79044 6.87788 6.677 6.78507 6.66154C6.68195 6.64607 6.74382 6.78528 6.6768 6.83684C6.5943 6.71825 6.56852 6.59451 6.55821 6.46045C6.55305 6.39858 6.57883 6.31609 6.50665 6.27999C6.47056 6.26453 6.40869 6.26968 6.39322 6.31609C6.36228 6.39858 6.26432 6.46561 6.33135 6.56873C6.34166 6.58935 6.35713 6.60998 6.3726 6.6306C6.39837 6.66669 6.419 6.70794 6.38291 6.74919C6.3365 6.80075 6.30557 6.73888 6.27463 6.72341C6.13026 6.65122 6.09933 6.66669 6.09933 6.83684C6.09933 6.97089 5.94981 7.08948 5.83122 7.0637C5.7745 7.05339 5.74872 7.02245 5.73841 6.96574C5.7281 6.91934 5.75388 6.89871 5.77966 6.86262C5.857 6.7595 6.05808 6.68732 5.86731 6.49139C5.80028 6.42436 5.77966 6.25937 5.86215 6.14078C5.89825 6.08922 5.92403 6.0222 5.86731 6.00157C5.82091 5.98095 5.74357 6.01704 5.72294 6.08922C5.69716 6.18203 5.67138 6.27999 5.6456 6.39858C5.56311 6.34702 5.49608 6.30062 5.4239 6.25422C5.17125 6.08407 4.89283 6.17688 4.7794 6.47077C4.7794 6.47592 4.77424 6.48108 4.77424 6.49139C4.76909 6.57388 4.67113 6.67185 4.76909 6.72856C4.8619 6.78012 4.90314 6.65122 4.97017 6.58935C5.02689 6.69763 5.09391 6.78528 5.21766 6.67185C5.25375 6.64091 5.295 6.64607 5.31562 6.677C5.34656 6.72341 5.30531 6.7595 5.26922 6.78012C5.24344 6.79559 5.2125 6.79559 5.18157 6.8059C5.13001 6.81622 5.05267 6.8059 5.0372 6.86777C5.01658 6.94511 5.11969 6.92965 5.14547 6.96574C5.20219 7.05339 5.26406 7.05855 5.36718 7.05339C5.45999 7.04823 5.41358 7.18229 5.45999 7.24932C5.37749 7.23385 5.32593 7.17198 5.23828 7.18229C5.16094 7.1926 5.11454 7.25447 5.04236 7.2751C4.98048 7.20807 5.14032 7.10495 4.99595 7.05855C4.85674 7.01214 4.71753 7.00699 4.58347 7.05855C4.45457 7.11011 4.2999 7.12557 4.24834 7.30088C4.22771 7.36275 4.10913 7.33697 4.01116 7.32666C4.31536 6.78012 4.68144 6.30062 5.10938 5.86236C5.16094 5.80565 5.18157 5.83658 5.23313 5.87267C5.4703 6.0222 5.5528 6.0686 5.71263 5.86752C5.75388 5.81596 5.81059 5.84174 5.857 5.80049C5.97043 5.70768 5.98074 5.60972 5.86731 5.51691C5.81575 5.47566 5.7745 5.5066 5.76419 5.54785C5.71779 5.84174 5.61467 5.65612 5.52702 5.57878C5.39296 5.57878 5.36718 5.74377 5.22281 5.73862C5.31562 5.66128 5.40327 5.58394 5.49608 5.5066C5.93949 5.12506 6.42931 4.80539 6.99131 4.54243C6.93975 4.65586 6.83148 4.72289 6.90366 4.85179C6.97069 4.96522 7.02225 4.96007 7.09959 4.88273C7.12021 4.85695 7.12537 4.80539 7.17693 4.83632C7.20786 4.85695 7.20271 4.88788 7.19755 4.91882C7.18724 4.95491 7.18208 4.99616 7.16661 5.02709C7.13568 5.07865 7.05318 5.1199 7.12021 5.18177C7.17177 5.22818 7.26458 5.22302 7.31098 5.18693C7.4141 5.09928 7.50691 5.10443 7.63581 5.14053C7.71315 5.16115 7.86267 5.16115 7.84205 4.991C7.83689 4.93429 7.85236 4.87757 7.89876 4.86726C8.04828 4.83632 8.08953 4.72289 8.14109 4.60431C8.18234 4.50119 8.26484 4.43416 8.37827 4.38775C8.50201 4.34135 8.61029 4.24854 8.68247 4.12996C8.71856 4.07324 8.98667 3.9959 9.03823 4.03199C9.06917 4.05262 9.07432 4.08355 9.04854 4.10933C9.00214 4.15058 8.95574 4.18152 8.89386 4.2073C8.83715 4.23308 8.55873 4.18667 8.83199 4.36197C8.87324 4.38775 8.82684 4.49087 8.77528 4.47541C8.59997 4.41353 8.50717 4.57853 8.36796 4.60431C8.32155 4.61462 8.28546 4.63008 8.30608 4.69196C8.32155 4.7332 8.33186 4.77445 8.38858 4.7693C8.47107 4.76414 8.54841 4.76414 8.63091 4.76414C8.66184 4.76414 8.69278 4.75898 8.69794 4.80539C8.69794 4.84664 8.68762 4.87757 8.63607 4.87757C8.55357 4.87757 8.47623 4.88273 8.39373 4.88788C8.34733 4.88788 8.2803 4.93429 8.3164 4.94975C8.41951 5.00131 8.44014 5.17146 8.59482 5.13537C8.667 5.1199 8.74434 5.12506 8.81652 5.09928C9.03307 5.02194 9.1826 5.10959 9.33728 5.26427C9.4868 5.41895 9.55383 5.64581 9.50227 5.79018C9.41977 6.04282 9.43524 6.0686 9.68273 6.00673C9.7446 5.99126 9.82709 6.07376 9.80647 6.16141C9.78585 6.25422 9.72397 6.22328 9.66726 6.18203C9.61054 6.14594 9.55898 6.16141 9.54352 6.23359C9.52289 6.33155 9.51774 6.43467 9.60539 6.48623C9.65695 6.51717 9.75491 6.5017 9.78585 6.41921C9.80131 6.37796 9.79616 6.30062 9.86319 6.3264C9.92506 6.35218 9.86319 6.41405 9.86319 6.4553C9.86319 6.53779 9.84772 6.60998 9.75491 6.65122C9.64664 6.69763 9.54867 6.99667 9.63117 7.06886C9.70851 7.13589 9.72397 7.20807 9.72913 7.28541C9.73429 7.404 9.80647 7.37822 9.88897 7.36275C9.86319 7.47618 9.78585 7.57414 9.84256 7.68757C9.8735 7.7546 9.86834 7.8371 9.97146 7.84225C10.0179 7.84225 10.0282 7.8835 10.0436 7.91959C10.0488 7.9299 10.0436 7.95053 10.054 7.95568C10.1983 8.04334 10.3375 8.13099 10.4871 8.21348C10.4974 8.21864 10.5489 8.1877 10.5489 8.17739C10.5283 8.03302 10.6469 7.94022 10.6985 7.83194C10.7913 7.64117 10.7706 7.44524 10.8222 7.25447C10.848 7.15651 10.8995 7.16682 10.9666 7.16682C11.1831 7.16682 11.3739 7.04308 11.4409 6.842C11.4667 6.7595 11.5286 6.77497 11.5801 6.75434C11.7039 6.70278 11.8946 6.79559 11.9565 6.59451C11.9565 6.5842 11.9874 6.5842 12.0081 6.57904C12.2504 6.54811 12.3381 6.3728 12.2143 6.15625C12.1473 6.04282 12.1988 5.90877 12.1421 5.79533C12.1267 5.76955 12.1473 5.69737 12.204 5.69737C12.3432 5.69737 12.3432 5.63034 12.2916 5.53238C12.2762 5.49629 12.2865 5.48598 12.3174 5.50144C12.3845 5.53238 12.4051 5.5066 12.4154 5.44473C12.4257 5.36739 12.369 5.36739 12.3226 5.35192C12.1885 5.31583 12.106 5.22818 12.0184 5.1199C12.0803 5.06834 12.1937 5.13021 12.1988 5.01678C12.204 4.91882 12.106 4.93429 12.0648 4.88788C12.0184 4.84148 11.9101 4.84664 11.9307 4.75898C11.9514 4.66618 11.9359 4.53728 12.0699 4.50119C12.106 4.49087 12.1627 4.45994 12.1576 4.44447C12.137 4.28979 12.2349 4.37744 12.2762 4.39291C13.0805 4.72289 13.792 5.18177 14.4159 5.78502C14.9367 6.29031 15.3646 6.86777 15.6997 7.51227C15.7152 7.53805 15.7255 7.56899 15.741 7.59477C15.7822 7.63086 15.7822 7.66179 15.7461 7.68757Z" fill="rgba(66, 139, 202, 0.3)"/>
</svg>
